G04*
G04 #@! TF.GenerationSoftware,Altium Limited,CircuitStudio,1.5.2 (30)*
G04*
G04 Layer_Physical_Order=2*
G04 Layer_Color=16711680*
%FSLAX25Y25*%
%MOIN*%
G70*
G01*
G75*
%ADD10R,0.06000X0.12598*%
%ADD25C,0.01969*%
%ADD26C,0.00600*%
%ADD28C,0.01181*%
%ADD29C,0.05906*%
%ADD30R,0.05906X0.05906*%
%ADD31C,0.06500*%
%ADD32C,0.02362*%
%ADD33C,0.02756*%
G36*
X349606Y242520D02*
Y148425D01*
X327124D01*
Y160718D01*
X325237D01*
Y162598D01*
X325135Y163114D01*
X325114Y163217D01*
X324764Y163741D01*
X323747Y164758D01*
X323725Y164868D01*
X323331Y165457D01*
X322742Y165851D01*
X322632Y165873D01*
X320433Y168071D01*
X319910Y168421D01*
X319291Y168544D01*
X283465D01*
X282846Y168421D01*
X282322Y168071D01*
X278549Y164298D01*
X278439Y164276D01*
X277850Y163883D01*
X277456Y163293D01*
X277318Y162598D01*
X277456Y161904D01*
X277850Y161314D01*
X278439Y160921D01*
X279134Y160782D01*
X279829Y160921D01*
X280418Y161314D01*
X280812Y161904D01*
X280834Y162014D01*
X284134Y165314D01*
X303833D01*
X304100Y164814D01*
X303952Y164593D01*
X303814Y163898D01*
X303952Y163203D01*
X304346Y162613D01*
X304935Y162220D01*
X305630Y162082D01*
X306325Y162220D01*
X306914Y162613D01*
X307159Y162980D01*
X311706D01*
X312606Y162081D01*
Y160718D01*
X309924D01*
Y148425D01*
X307024D01*
Y153569D01*
X300024D01*
Y148425D01*
X297024D01*
Y153569D01*
X290024D01*
Y148425D01*
X272441D01*
Y242126D01*
X275590Y245276D01*
X346850D01*
X349606Y242520D01*
D02*
G37*
G36*
X320348Y163589D02*
X320370Y163478D01*
X320763Y162889D01*
X321352Y162496D01*
X321463Y162473D01*
X322007Y161929D01*
Y160718D01*
X319924D01*
Y148425D01*
X317124D01*
Y160718D01*
X314441D01*
Y162461D01*
X314371Y162812D01*
X314173Y163110D01*
X312736Y164547D01*
X312438Y164745D01*
X312087Y164815D01*
X312090Y165314D01*
X318622D01*
X320348Y163589D01*
D02*
G37*
%LPC*%
G36*
X341876Y160222D02*
X338376D01*
X338473Y159494D01*
X338850Y158581D01*
X339452Y157798D01*
X340235Y157197D01*
X341147Y156819D01*
X341876Y156723D01*
Y160222D01*
D02*
G37*
G36*
X345875D02*
X342376D01*
Y156723D01*
X343105Y156819D01*
X344017Y157197D01*
X344800Y157798D01*
X345402Y158581D01*
X345779Y159494D01*
X345875Y160222D01*
D02*
G37*
G36*
X341876Y164222D02*
X341147Y164126D01*
X340235Y163748D01*
X339452Y163147D01*
X338850Y162364D01*
X338473Y161451D01*
X338376Y160722D01*
X341876D01*
Y164222D01*
D02*
G37*
G36*
X307024Y160618D02*
X303774D01*
Y154069D01*
X307024D01*
Y160618D01*
D02*
G37*
G36*
X293274D02*
X290024D01*
Y154069D01*
X293274D01*
Y160618D01*
D02*
G37*
G36*
X297024D02*
X293774D01*
Y154069D01*
X297024D01*
Y160618D01*
D02*
G37*
G36*
X303274D02*
X300024D01*
Y154069D01*
X303274D01*
Y160618D01*
D02*
G37*
G36*
X342376Y164222D02*
Y160722D01*
X345875D01*
X345779Y161451D01*
X345402Y162364D01*
X344800Y163147D01*
X344017Y163748D01*
X343105Y164126D01*
X342376Y164222D01*
D02*
G37*
G36*
X344094Y229646D02*
X343167Y229524D01*
X342303Y229166D01*
X341561Y228597D01*
X340991Y227855D01*
X340633Y226991D01*
X340632Y226981D01*
X339449D01*
X339156Y226922D01*
X339098Y226911D01*
X338800Y226712D01*
X336359Y224271D01*
X336160Y223973D01*
X336090Y223622D01*
Y213766D01*
X330453Y208129D01*
X330255Y207832D01*
X330185Y207480D01*
Y204679D01*
X329818Y204434D01*
X329425Y203845D01*
X329286Y203150D01*
X329425Y202455D01*
X329818Y201866D01*
X330407Y201472D01*
X331102Y201334D01*
X331797Y201472D01*
X332386Y201866D01*
X332780Y202455D01*
X332918Y203150D01*
X332780Y203845D01*
X332386Y204434D01*
X332020Y204679D01*
Y205828D01*
X332520Y205877D01*
X332574Y205604D01*
X332968Y205015D01*
X333557Y204622D01*
X334252Y204483D01*
X334947Y204622D01*
X335536Y205015D01*
X335781Y205382D01*
X340601D01*
X340633Y205136D01*
X340991Y204271D01*
X341561Y203529D01*
X342303Y202960D01*
X343167Y202602D01*
X344094Y202480D01*
X345022Y202602D01*
X345886Y202960D01*
X346628Y203529D01*
X347198Y204271D01*
X347556Y205136D01*
X347678Y206063D01*
X347556Y206991D01*
X347198Y207855D01*
X346628Y208597D01*
X345886Y209166D01*
X345022Y209524D01*
X344094Y209646D01*
X343167Y209524D01*
X342303Y209166D01*
X341561Y208597D01*
X340991Y207855D01*
X340727Y207217D01*
X335781D01*
X335536Y207583D01*
X334947Y207977D01*
X334252Y208115D01*
X334083Y208082D01*
X333521Y208480D01*
X333506Y208586D01*
X337657Y212737D01*
X337856Y213035D01*
X337867Y213093D01*
X337926Y213386D01*
Y223242D01*
X339829Y225145D01*
X340632D01*
X340633Y225136D01*
X340991Y224271D01*
X341561Y223529D01*
X342303Y222960D01*
X343167Y222602D01*
X344094Y222480D01*
X345022Y222602D01*
X345886Y222960D01*
X346628Y223529D01*
X347198Y224271D01*
X347556Y225136D01*
X347678Y226063D01*
X347556Y226991D01*
X347198Y227855D01*
X346628Y228597D01*
X345886Y229166D01*
X345022Y229524D01*
X344094Y229646D01*
D02*
G37*
G36*
X344344Y219513D02*
Y216313D01*
X347544D01*
X347458Y216964D01*
X347110Y217804D01*
X346557Y218526D01*
X345836Y219079D01*
X344996Y219427D01*
X344344Y219513D01*
D02*
G37*
G36*
X301575Y243942D02*
X300880Y243804D01*
X300291Y243410D01*
X299897Y242821D01*
X299759Y242126D01*
X299897Y241431D01*
X300291Y240842D01*
X300880Y240448D01*
X301575Y240310D01*
X301658Y240326D01*
X303079Y238906D01*
X303079Y238906D01*
X303472Y238642D01*
X303550Y238627D01*
X303937Y238550D01*
X303937Y238550D01*
X312449D01*
X312495Y238480D01*
X313085Y238086D01*
X313779Y237948D01*
X314475Y238086D01*
X315064Y238480D01*
X315111Y238550D01*
X320322D01*
X320369Y238480D01*
X320959Y238086D01*
X321654Y237948D01*
X322348Y238086D01*
X322938Y238480D01*
X323331Y239069D01*
X323469Y239764D01*
X323331Y240459D01*
X322938Y241048D01*
X322348Y241441D01*
X321654Y241580D01*
X320959Y241441D01*
X320369Y241048D01*
X320322Y240978D01*
X315111D01*
X315064Y241048D01*
X314475Y241442D01*
X313779Y241580D01*
X313085Y241442D01*
X312495Y241048D01*
X312449Y240978D01*
X304440D01*
X303374Y242043D01*
X303391Y242126D01*
X303253Y242821D01*
X302859Y243410D01*
X302270Y243804D01*
X301575Y243942D01*
D02*
G37*
G36*
X344094Y239646D02*
X343167Y239524D01*
X342303Y239166D01*
X341561Y238597D01*
X340991Y237855D01*
X340633Y236990D01*
X340632Y236981D01*
X332736D01*
X332386Y237505D01*
X331797Y237898D01*
X331102Y238036D01*
X330407Y237898D01*
X329818Y237505D01*
X329425Y236915D01*
X329353Y236556D01*
X327179Y234382D01*
X299560D01*
X299316Y234749D01*
X298726Y235142D01*
X298031Y235281D01*
X297337Y235142D01*
X296747Y234749D01*
X296354Y234159D01*
X296216Y233465D01*
X296354Y232770D01*
X296747Y232181D01*
X297337Y231787D01*
X298031Y231649D01*
X298726Y231787D01*
X299316Y232181D01*
X299560Y232547D01*
X327559D01*
X327910Y232617D01*
X328208Y232816D01*
X330124Y234732D01*
X330407Y234543D01*
X331102Y234404D01*
X331797Y234543D01*
X332386Y234936D01*
X332526Y235145D01*
X340632D01*
X340633Y235136D01*
X340991Y234271D01*
X341561Y233529D01*
X342303Y232960D01*
X343167Y232602D01*
X344094Y232480D01*
X345022Y232602D01*
X345886Y232960D01*
X346628Y233529D01*
X347198Y234271D01*
X347556Y235136D01*
X347678Y236063D01*
X347556Y236990D01*
X347198Y237855D01*
X346628Y238597D01*
X345886Y239166D01*
X345022Y239524D01*
X344094Y239646D01*
D02*
G37*
G36*
X343845Y219513D02*
X343193Y219427D01*
X342353Y219079D01*
X341632Y218526D01*
X341078Y217804D01*
X340731Y216964D01*
X340645Y216313D01*
X343845D01*
Y219513D01*
D02*
G37*
G36*
X322441Y217564D02*
X321746Y217426D01*
X321157Y217032D01*
X320763Y216443D01*
X320625Y215748D01*
X320763Y215053D01*
X321157Y214464D01*
X321227Y214417D01*
Y203693D01*
X321157Y203646D01*
X321110Y203576D01*
X293307D01*
X293307Y203576D01*
X292843Y203484D01*
X292449Y203221D01*
X292449Y203221D01*
X291758Y202530D01*
X291431Y202465D01*
X290842Y202071D01*
X290448Y201482D01*
X290310Y200787D01*
X290448Y200093D01*
X290842Y199503D01*
X291431Y199110D01*
X292126Y198971D01*
X292821Y199110D01*
X293410Y199503D01*
X293804Y200093D01*
X293942Y200787D01*
X294238Y201148D01*
X321110D01*
X321157Y201078D01*
X321746Y200684D01*
X322441Y200546D01*
X322524Y200563D01*
X327882Y195205D01*
X327882Y195205D01*
X328276Y194941D01*
X328740Y194849D01*
X328740Y194849D01*
X340542D01*
Y192510D01*
X347647D01*
Y199616D01*
X340542D01*
Y197277D01*
X329243D01*
X324240Y202279D01*
X324257Y202362D01*
X324119Y203057D01*
X323725Y203646D01*
X323655Y203693D01*
Y214417D01*
X323725Y214464D01*
X324119Y215053D01*
X324257Y215748D01*
X324119Y216443D01*
X323725Y217032D01*
X323136Y217426D01*
X322441Y217564D01*
D02*
G37*
G36*
X342126Y174356D02*
X341121Y174223D01*
X340184Y173835D01*
X339380Y173218D01*
X338763Y172414D01*
X338375Y171477D01*
X338243Y170473D01*
X338375Y169467D01*
X338763Y168531D01*
X339380Y167727D01*
X340184Y167110D01*
X341121Y166722D01*
X342126Y166589D01*
X343131Y166722D01*
X344068Y167110D01*
X344872Y167727D01*
X345489Y168531D01*
X345877Y169467D01*
X346009Y170473D01*
X345877Y171477D01*
X345489Y172414D01*
X344872Y173218D01*
X344068Y173835D01*
X343131Y174223D01*
X342126Y174356D01*
D02*
G37*
G36*
X347544Y215813D02*
X344344D01*
Y212613D01*
X344996Y212699D01*
X345836Y213047D01*
X346557Y213600D01*
X347110Y214322D01*
X347458Y215162D01*
X347544Y215813D01*
D02*
G37*
G36*
X343845D02*
X340645D01*
X340731Y215162D01*
X341078Y214322D01*
X341632Y213600D01*
X342353Y213047D01*
X343193Y212699D01*
X343845Y212613D01*
Y215813D01*
D02*
G37*
%LPD*%
D10*
X323524Y153819D02*
D03*
X313524D02*
D03*
X303524D02*
D03*
X293524D02*
D03*
D25*
X319291Y166929D02*
X322047Y164173D01*
X283465Y166929D02*
X319291D01*
X323622Y153937D02*
Y162598D01*
X322047Y164173D02*
X323622Y162598D01*
X279134D02*
X283465Y166929D01*
X298524Y153819D02*
X303524D01*
X293524D02*
X298524D01*
D26*
X323524Y153839D02*
X323622Y153937D01*
X313524Y153819D02*
Y162461D01*
X312087Y163898D02*
X313524Y162461D01*
X305630Y163898D02*
X312087D01*
X339449Y226063D02*
X344094D01*
X337008Y223622D02*
X339449Y226063D01*
X337008Y213386D02*
Y223622D01*
X331102Y207480D02*
X337008Y213386D01*
X331102Y203150D02*
Y207480D01*
X343858Y206299D02*
X344094Y206063D01*
X334252Y206299D02*
X343858D01*
X298031Y233465D02*
X327559D01*
X331102Y236063D02*
X344094D01*
X327559Y233465D02*
X330157Y236063D01*
X321654Y239764D02*
X321654Y239764D01*
D28*
X328740Y196063D02*
X344094D01*
X322441Y202362D02*
X328740Y196063D01*
X292126Y200787D02*
Y201181D01*
X293307Y202362D01*
X322441D01*
Y215748D01*
X303937Y239764D02*
X313779D01*
X301575Y242126D02*
X303937Y239764D01*
X313779D02*
X321654D01*
D29*
X344094Y236063D02*
D03*
Y226063D02*
D03*
Y216063D02*
D03*
Y206063D02*
D03*
D30*
Y196063D02*
D03*
D31*
X342126Y160473D02*
D03*
Y170473D02*
D03*
D32*
X322047Y164173D02*
D03*
X292126Y200787D02*
D03*
X322441Y215748D02*
D03*
Y202362D02*
D03*
X279134Y162598D02*
D03*
X298524Y153819D02*
D03*
X323622Y153937D02*
D03*
X305630Y163898D02*
D03*
X331102Y203150D02*
D03*
X334252Y206299D02*
D03*
X301575Y242126D02*
D03*
X298031Y233465D02*
D03*
X331102Y236221D02*
D03*
X313386Y236614D02*
D03*
X321654Y239764D02*
D03*
X313779Y239764D02*
D03*
X298819Y223622D02*
D03*
Y219291D02*
D03*
Y214961D02*
D03*
X294488Y223622D02*
D03*
Y219291D02*
D03*
Y214961D02*
D03*
X290158Y223622D02*
D03*
Y219291D02*
D03*
Y214961D02*
D03*
D33*
X277953Y209055D02*
D03*
X279528Y238583D02*
D03*
X335039Y242126D02*
D03*
X330315Y219291D02*
D03*
X317323Y217323D02*
D03*
X316142Y209449D02*
D03*
X316535Y198031D02*
D03*
X335433Y164567D02*
D03*
X335827Y152362D02*
D03*
X281102Y153543D02*
D03*
X290551Y180709D02*
D03*
X305512Y182677D02*
D03*
M02*
