G04*
G04 #@! TF.GenerationSoftware,Altium Limited,CircuitStudio,1.5.2 (30)*
G04*
G04 Layer_Color=8421504*
%FSLAX25Y25*%
%MOIN*%
G70*
G01*
G75*
%ADD10R,0.06000X0.12598*%
%ADD11O,0.02400X0.08000*%
%ADD12R,0.02400X0.08000*%
%ADD13R,0.05118X0.02165*%
%ADD14R,0.05807X0.03150*%
%ADD15R,0.12303X0.07284*%
G04:AMPARAMS|DCode=16|XSize=55.4mil|YSize=22.67mil|CornerRadius=11.34mil|HoleSize=0mil|Usage=FLASHONLY|Rotation=90.000|XOffset=0mil|YOffset=0mil|HoleType=Round|Shape=RoundedRectangle|*
%AMROUNDEDRECTD16*
21,1,0.05540,0.00000,0,0,90.0*
21,1,0.03273,0.02267,0,0,90.0*
1,1,0.02267,0.00000,0.01636*
1,1,0.02267,0.00000,-0.01636*
1,1,0.02267,0.00000,-0.01636*
1,1,0.02267,0.00000,0.01636*
%
%ADD16ROUNDEDRECTD16*%
%ADD17R,0.02267X0.05540*%
%ADD18R,0.03000X0.03000*%
%ADD19R,0.03000X0.03000*%
%ADD20O,0.00984X0.03543*%
%ADD21O,0.03543X0.00984*%
%ADD22R,0.14173X0.14173*%
%ADD23R,0.03347X0.01772*%
%ADD24R,0.06299X0.09843*%
D10*
X328524Y153819D02*
D03*
X318524D02*
D03*
X308524D02*
D03*
X298524D02*
D03*
D11*
X295630Y169339D02*
D03*
Y191339D02*
D03*
X305630Y169339D02*
D03*
X310630D02*
D03*
X305630Y191339D02*
D03*
X300630D02*
D03*
Y169339D02*
D03*
D12*
X310630Y191339D02*
D03*
D13*
X322047Y187008D02*
D03*
Y175197D02*
D03*
D14*
X322392Y181102D02*
D03*
D15*
X331496D02*
D03*
D16*
X278543Y182089D02*
D03*
X286024D02*
D03*
Y173029D02*
D03*
X282283D02*
D03*
D17*
X278543D02*
D03*
D18*
X335433Y236221D02*
D03*
Y230720D02*
D03*
X346063Y177165D02*
D03*
Y182665D02*
D03*
D19*
X327559Y168110D02*
D03*
X322059D02*
D03*
X284646Y187795D02*
D03*
X279146D02*
D03*
X284646Y166929D02*
D03*
X279146D02*
D03*
X327953Y194488D02*
D03*
X322453D02*
D03*
X316223Y226709D02*
D03*
X321723D02*
D03*
X316092Y232458D02*
D03*
X321592D02*
D03*
X308268Y262598D02*
D03*
X313768D02*
D03*
X294488Y238189D02*
D03*
X288988D02*
D03*
X287402Y201181D02*
D03*
X281902D02*
D03*
X300000Y238189D02*
D03*
X305500D02*
D03*
D20*
X301378Y229331D02*
D03*
X299410D02*
D03*
X297441D02*
D03*
X295472D02*
D03*
X293504D02*
D03*
X291535D02*
D03*
X289567D02*
D03*
X287598D02*
D03*
Y209252D02*
D03*
X289567D02*
D03*
X291535D02*
D03*
X293504D02*
D03*
X295472D02*
D03*
X297441D02*
D03*
X299410D02*
D03*
X301378D02*
D03*
D21*
X284449Y226181D02*
D03*
Y224213D02*
D03*
Y222244D02*
D03*
Y220276D02*
D03*
Y218307D02*
D03*
Y216339D02*
D03*
Y214370D02*
D03*
Y212402D02*
D03*
X304528D02*
D03*
Y214370D02*
D03*
Y216339D02*
D03*
Y218307D02*
D03*
Y220276D02*
D03*
Y222244D02*
D03*
Y224213D02*
D03*
Y226181D02*
D03*
D22*
X294488Y219291D02*
D03*
D23*
X305315Y273228D02*
D03*
X316732D02*
D03*
Y277165D02*
D03*
X305315D02*
D03*
Y269291D02*
D03*
X316732D02*
D03*
D24*
X311024Y273228D02*
D03*
M02*
