G04*
G04 #@! TF.GenerationSoftware,Altium Limited,CircuitStudio,1.5.2 (30)*
G04*
G04 Layer_Color=65535*
%FSLAX25Y25*%
%MOIN*%
G70*
G01*
G75*
%ADD27C,0.00787*%
%ADD28C,0.01181*%
%ADD34C,0.00984*%
%ADD35C,0.00400*%
%ADD36C,0.01000*%
%ADD37C,0.00591*%
%ADD38C,0.00500*%
%ADD39C,0.00709*%
%ADD40R,0.03800X0.08400*%
D27*
X339094Y191063D02*
X349095D01*
X339094D02*
Y241063D01*
X349095Y191063D02*
Y241063D01*
X339094D02*
X349095D01*
X276378Y177768D02*
X288189D01*
Y177350D02*
Y177768D01*
X276378Y177350D02*
X288189D01*
X276378D02*
Y177768D01*
X305118Y208661D02*
Y210335D01*
X303445Y208661D02*
X305118D01*
X283858D02*
Y210335D01*
Y208661D02*
X285531D01*
X283858Y228248D02*
Y229921D01*
X285531D01*
X305118Y228248D02*
Y229921D01*
X303445D02*
X305118D01*
D28*
X324410Y190157D02*
X335039D01*
Y185827D02*
Y190157D01*
X324410Y189370D02*
Y190157D01*
X335039Y172047D02*
Y176378D01*
X324410Y172047D02*
X335039D01*
X324410D02*
Y172835D01*
D34*
X276083Y170866D02*
G03*
X276083Y170866I-492J0D01*
G01*
X305020Y232480D02*
G03*
X305020Y232480I-492J0D01*
G01*
D35*
X348031Y165472D02*
G03*
X348031Y165472I-5906J0D01*
G01*
X337126Y167473D02*
X347126D01*
X337126D02*
X342126Y163472D01*
X337126D02*
X342126D01*
X347126Y167473D01*
X342126Y163472D02*
X347126D01*
D36*
X303231Y280413D02*
G03*
X303231Y280413I-574J0D01*
G01*
X305118Y267323D02*
X316929D01*
X305118Y279134D02*
X316929D01*
D37*
X280709Y147343D02*
X341339D01*
Y82874D02*
Y147343D01*
X280709Y82874D02*
X341339D01*
X280709D02*
Y147343D01*
D38*
X293130Y196339D02*
X313130D01*
X293130Y164339D02*
Y196339D01*
Y164339D02*
X313130D01*
Y196339D01*
X337733Y228420D02*
Y238521D01*
X333133Y228420D02*
Y238521D01*
Y228420D02*
X337733D01*
X333133Y238521D02*
X337733D01*
X319759Y165810D02*
X329859D01*
X319759Y170410D02*
X329859D01*
X319759Y165810D02*
Y170410D01*
X329859Y165810D02*
Y170410D01*
X276846Y185495D02*
X286946D01*
X276846Y190095D02*
X286946D01*
X276846Y185495D02*
Y190095D01*
X286946Y185495D02*
Y190095D01*
X276846Y164629D02*
X286946D01*
X276846Y169229D02*
X286946D01*
X276846Y164629D02*
Y169229D01*
X286946Y164629D02*
Y169229D01*
X320153Y192188D02*
X330253D01*
X320153Y196788D02*
X330253D01*
X320153Y192188D02*
Y196788D01*
X330253Y192188D02*
Y196788D01*
X343763Y174865D02*
Y184965D01*
X348363Y174865D02*
Y184965D01*
X343763D02*
X348363D01*
X343763Y174865D02*
X348363D01*
X313923Y229009D02*
X324023D01*
X313923Y224409D02*
X324023D01*
Y229009D01*
X313923Y224409D02*
Y229009D01*
X313792Y234758D02*
X323892D01*
X313792Y230158D02*
X323892D01*
Y234758D01*
X313792Y230158D02*
Y234758D01*
X305968Y264898D02*
X316068D01*
X305968Y260298D02*
X316068D01*
Y264898D01*
X305968Y260298D02*
Y264898D01*
X286688Y235889D02*
X296788D01*
X286688Y240489D02*
X296788D01*
X286688Y235889D02*
Y240489D01*
X296788Y235889D02*
Y240489D01*
X279602Y198881D02*
X289702D01*
X279602Y203481D02*
X289702D01*
X279602Y198881D02*
Y203481D01*
X289702Y198881D02*
Y203481D01*
X297700Y240489D02*
X307800D01*
X297700Y235889D02*
X307800D01*
Y240489D01*
X297700Y235889D02*
Y240489D01*
D39*
X339370Y242126D02*
Y245275D01*
X340944D01*
X341469Y244750D01*
Y243700D01*
X340944Y243176D01*
X339370D01*
X340420D02*
X341469Y242126D01*
X344618Y244750D02*
X344093Y245275D01*
X343043D01*
X342519Y244750D01*
Y244225D01*
X343043Y243700D01*
X344093D01*
X344618Y243176D01*
Y242651D01*
X344093Y242126D01*
X343043D01*
X342519Y242651D01*
X345667Y245275D02*
X347766D01*
X346717D01*
Y242126D01*
X329921Y227164D02*
Y224016D01*
X331496D01*
X332020Y224540D01*
Y226640D01*
X331496Y227164D01*
X329921D01*
X333070D02*
X334119D01*
X333595D01*
Y224016D01*
X333070D01*
X334119D01*
X337268Y227164D02*
X336218D01*
X335694Y226640D01*
Y224540D01*
X336218Y224016D01*
X337268D01*
X337793Y224540D01*
Y226640D01*
X337268Y227164D01*
X331627Y216403D02*
X331102Y216928D01*
X330052D01*
X329528Y216403D01*
Y214304D01*
X330052Y213779D01*
X331102D01*
X331627Y214304D01*
Y215354D01*
X330577D01*
X332676Y213779D02*
Y216928D01*
X334775Y213779D01*
Y216928D01*
X335825D02*
Y213779D01*
X337399D01*
X337924Y214304D01*
Y216403D01*
X337399Y216928D01*
X335825D01*
X331627Y207348D02*
X331102Y207873D01*
X330052D01*
X329528Y207348D01*
Y205249D01*
X330052Y204724D01*
X331102D01*
X331627Y205249D01*
X332676Y207873D02*
Y204724D01*
X334775D01*
X335825Y207873D02*
Y204724D01*
Y205774D01*
X337924Y207873D01*
X336350Y206299D01*
X337924Y204724D01*
X329134Y200655D02*
X329659Y201180D01*
X330708D01*
X331233Y200655D01*
Y200131D01*
X330708Y199606D01*
X330183D01*
X330708D01*
X331233Y199081D01*
Y198556D01*
X330708Y198031D01*
X329659D01*
X329134Y198556D01*
X332282Y200131D02*
X333332Y198031D01*
X334382Y200131D01*
X335431Y200655D02*
X335956Y201180D01*
X337005D01*
X337530Y200655D01*
Y200131D01*
X337005Y199606D01*
X336481D01*
X337005D01*
X337530Y199081D01*
Y198556D01*
X337005Y198031D01*
X335956D01*
X335431Y198556D01*
X308268Y201377D02*
Y198589D01*
X308825Y198031D01*
X309940D01*
X310498Y198589D01*
Y201377D01*
X311613Y198031D02*
X312728D01*
X312171D01*
Y201377D01*
X311613Y200819D01*
X289764Y152164D02*
Y148819D01*
Y149934D01*
X291994Y152164D01*
X290321Y150492D01*
X291994Y148819D01*
X293109D02*
X294224D01*
X293667D01*
Y152164D01*
X293109Y151607D01*
X336614Y189172D02*
Y186384D01*
X337172Y185827D01*
X338287D01*
X338844Y186384D01*
Y189172D01*
X342190Y185827D02*
X339960D01*
X342190Y188057D01*
Y188615D01*
X341632Y189172D01*
X340517D01*
X339960Y188615D01*
X272639Y179921D02*
X275427D01*
X275984Y180479D01*
Y181594D01*
X275427Y182151D01*
X272639D01*
X273196Y183267D02*
X272639Y183824D01*
Y184939D01*
X273196Y185497D01*
X273754D01*
X274312Y184939D01*
Y184382D01*
Y184939D01*
X274869Y185497D01*
X275427D01*
X275984Y184939D01*
Y183824D01*
X275427Y183267D01*
X327559Y238583D02*
Y241928D01*
X329232D01*
X329789Y241371D01*
Y240255D01*
X329232Y239698D01*
X327559D01*
X328674D02*
X329789Y238583D01*
X330904D02*
X332020D01*
X331462D01*
Y241928D01*
X330904Y241371D01*
X316797Y169323D02*
X316240Y169881D01*
X315125D01*
X314567Y169323D01*
Y167093D01*
X315125Y166535D01*
X316240D01*
X316797Y167093D01*
X317912Y166535D02*
X319027D01*
X318470D01*
Y169881D01*
X317912Y169323D01*
X278215Y194914D02*
X277657Y195471D01*
X276542D01*
X275984Y194914D01*
Y192683D01*
X276542Y192126D01*
X277657D01*
X278215Y192683D01*
X279330Y194914D02*
X279887Y195471D01*
X281002D01*
X281560Y194914D01*
Y194356D01*
X281002Y193799D01*
X280445D01*
X281002D01*
X281560Y193241D01*
Y192683D01*
X281002Y192126D01*
X279887D01*
X279330Y192683D01*
X283726Y162630D02*
X283169Y163188D01*
X282054D01*
X281496Y162630D01*
Y160400D01*
X282054Y159843D01*
X283169D01*
X283726Y160400D01*
X287072Y159843D02*
X284841D01*
X287072Y162073D01*
Y162630D01*
X286514Y163188D01*
X285399D01*
X284841Y162630D01*
X321522Y200426D02*
X320964Y200983D01*
X319849D01*
X319291Y200426D01*
Y198195D01*
X319849Y197638D01*
X320964D01*
X321522Y198195D01*
X324309Y197638D02*
Y200983D01*
X322637Y199311D01*
X324867D01*
X277559Y234841D02*
Y232054D01*
X278117Y231496D01*
X279232D01*
X279789Y232054D01*
Y234841D01*
X282577Y231496D02*
Y234841D01*
X280904Y233169D01*
X283135D01*
X331102Y169881D02*
Y166535D01*
X332775D01*
X333333Y167093D01*
Y169323D01*
X332775Y169881D01*
X331102D01*
X334448Y166535D02*
X335563D01*
X335005D01*
Y169881D01*
X334448Y169323D01*
X342913Y177165D02*
X339568D01*
Y178838D01*
X340126Y179396D01*
X341241D01*
X341798Y178838D01*
Y177165D01*
Y178280D02*
X342913Y179396D01*
X340126Y180511D02*
X339568Y181068D01*
Y182183D01*
X340126Y182741D01*
X340683D01*
X341241Y182183D01*
Y181626D01*
Y182183D01*
X341798Y182741D01*
X342356D01*
X342913Y182183D01*
Y181068D01*
X342356Y180511D01*
X314567Y219685D02*
Y223030D01*
X316240D01*
X316797Y222473D01*
Y221358D01*
X316240Y220800D01*
X314567D01*
X315682D02*
X316797Y219685D01*
X320143Y223030D02*
X317912D01*
Y221358D01*
X319027Y221915D01*
X319585D01*
X320143Y221358D01*
Y220243D01*
X319585Y219685D01*
X318470D01*
X317912Y220243D01*
X315354Y235433D02*
Y238778D01*
X317027D01*
X317585Y238221D01*
Y237106D01*
X317027Y236548D01*
X315354D01*
X316470D02*
X317585Y235433D01*
X320372D02*
Y238778D01*
X318700Y237106D01*
X320930D01*
X321064Y269685D02*
X323852D01*
X324410Y270243D01*
Y271358D01*
X323852Y271915D01*
X321064D01*
Y275261D02*
Y273030D01*
X322737D01*
X322179Y274146D01*
Y274703D01*
X322737Y275261D01*
X323852D01*
X324410Y274703D01*
Y273588D01*
X323852Y273030D01*
X301443Y263811D02*
X300885Y264369D01*
X299770D01*
X299213Y263811D01*
Y261581D01*
X299770Y261024D01*
X300885D01*
X301443Y261581D01*
X304788Y264369D02*
X302558D01*
Y262696D01*
X303673Y263254D01*
X304231D01*
X304788Y262696D01*
Y261581D01*
X304231Y261024D01*
X303116D01*
X302558Y261581D01*
X288844Y244520D02*
X288287Y245078D01*
X287172D01*
X286614Y244520D01*
Y242290D01*
X287172Y241732D01*
X288287D01*
X288844Y242290D01*
X289960Y244520D02*
X290517Y245078D01*
X291632D01*
X292190Y244520D01*
Y243963D01*
X291632Y243405D01*
X292190Y242847D01*
Y242290D01*
X291632Y241732D01*
X290517D01*
X289960Y242290D01*
Y242847D01*
X290517Y243405D01*
X289960Y243963D01*
Y244520D01*
X290517Y243405D02*
X291632D01*
X276246Y205544D02*
X275688Y206101D01*
X274573D01*
X274016Y205544D01*
Y203313D01*
X274573Y202756D01*
X275688D01*
X276246Y203313D01*
X277361Y206101D02*
X279591D01*
Y205544D01*
X277361Y203313D01*
Y202756D01*
X306561Y244520D02*
X306003Y245078D01*
X304888D01*
X304331Y244520D01*
Y242290D01*
X304888Y241732D01*
X306003D01*
X306561Y242290D01*
X309906Y245078D02*
X308791Y244520D01*
X307676Y243405D01*
Y242290D01*
X308234Y241732D01*
X309349D01*
X309906Y242290D01*
Y242847D01*
X309349Y243405D01*
X307676D01*
D40*
X311229Y180339D02*
D03*
M02*
