G04*
G04 #@! TF.GenerationSoftware,Altium Limited,CircuitStudio,1.5.2 (30)*
G04*
G04 Layer_Physical_Order=1*
G04 Layer_Color=255*
%FSLAX25Y25*%
%MOIN*%
G70*
G01*
G75*
%ADD10R,0.06000X0.12598*%
%ADD11O,0.02400X0.08000*%
%ADD12R,0.02400X0.08000*%
%ADD13R,0.05118X0.02165*%
%ADD14R,0.05807X0.03150*%
%ADD15R,0.12303X0.07284*%
G04:AMPARAMS|DCode=16|XSize=55.4mil|YSize=22.67mil|CornerRadius=11.34mil|HoleSize=0mil|Usage=FLASHONLY|Rotation=90.000|XOffset=0mil|YOffset=0mil|HoleType=Round|Shape=RoundedRectangle|*
%AMROUNDEDRECTD16*
21,1,0.05540,0.00000,0,0,90.0*
21,1,0.03273,0.02267,0,0,90.0*
1,1,0.02267,0.00000,0.01636*
1,1,0.02267,0.00000,-0.01636*
1,1,0.02267,0.00000,-0.01636*
1,1,0.02267,0.00000,0.01636*
%
%ADD16ROUNDEDRECTD16*%
%ADD17R,0.02267X0.05540*%
%ADD18R,0.03000X0.03000*%
%ADD19R,0.03000X0.03000*%
%ADD20O,0.00984X0.03543*%
%ADD21O,0.03543X0.00984*%
%ADD22R,0.14173X0.14173*%
%ADD23R,0.03347X0.01772*%
%ADD24R,0.06299X0.09843*%
%ADD25C,0.01969*%
%ADD26C,0.00600*%
%ADD27C,0.00787*%
%ADD28C,0.01181*%
%ADD29C,0.05906*%
%ADD30R,0.05906X0.05906*%
%ADD31C,0.06500*%
%ADD32C,0.02362*%
%ADD33C,0.02756*%
G36*
X335415Y208956D02*
Y208194D01*
X335023Y207985D01*
X334915Y207983D01*
X334252Y208115D01*
X333557Y207977D01*
X332968Y207583D01*
X332723Y207217D01*
X302788D01*
X302692Y207299D01*
X302441Y207717D01*
X302491Y207972D01*
Y210531D01*
X302407Y210958D01*
X302296Y211122D01*
X302657Y211483D01*
X302822Y211373D01*
X303248Y211288D01*
X305807D01*
X306233Y211373D01*
X306399Y211484D01*
X332888D01*
X335415Y208956D01*
D02*
G37*
G36*
X349606Y242520D02*
Y148425D01*
X332124D01*
Y160718D01*
X324924D01*
Y155552D01*
X324411D01*
X324317Y155615D01*
X323622Y155753D01*
X322927Y155615D01*
X322834Y155552D01*
X322124D01*
Y160718D01*
X314924D01*
Y148425D01*
X312124D01*
Y160718D01*
X309441D01*
Y160768D01*
X309371Y161119D01*
X309173Y161417D01*
X308523Y162066D01*
X308225Y162265D01*
X307874Y162335D01*
X307329D01*
X307062Y162835D01*
X307308Y163203D01*
X307446Y163898D01*
X307308Y164593D01*
X306914Y165182D01*
X307174Y165609D01*
X307326Y165836D01*
X307465Y166539D01*
Y172139D01*
X307326Y172841D01*
X306928Y173436D01*
X306332Y173834D01*
X305630Y173974D01*
X304928Y173834D01*
X304332Y173436D01*
X303934Y172841D01*
X303795Y172139D01*
Y166539D01*
X303934Y165836D01*
X304086Y165609D01*
X304346Y165182D01*
X303952Y164593D01*
X303814Y163898D01*
X303952Y163203D01*
X304198Y162835D01*
X303931Y162335D01*
X301955D01*
X301548Y162742D01*
Y164987D01*
X301928Y165241D01*
X302326Y165836D01*
X302465Y166539D01*
Y172139D01*
X302326Y172841D01*
X301928Y173436D01*
X301332Y173834D01*
X300630Y173974D01*
X299928Y173834D01*
X299332Y173436D01*
X298934Y172841D01*
X298795Y172139D01*
Y166539D01*
X298934Y165836D01*
X299332Y165241D01*
X299712Y164987D01*
Y162362D01*
X299782Y162011D01*
X299981Y161713D01*
X300576Y161118D01*
X300369Y160618D01*
X298774D01*
Y154069D01*
X302024D01*
Y160500D01*
X304924D01*
Y148425D01*
X302024D01*
Y153569D01*
X295024D01*
Y148425D01*
X272441D01*
Y242126D01*
X275590Y245276D01*
X308119D01*
Y236239D01*
X308188Y235888D01*
X308387Y235591D01*
X312169Y231809D01*
X312466Y231610D01*
X312817Y231541D01*
X313992D01*
Y230445D01*
X313386D01*
X313035Y230375D01*
X312737Y230176D01*
X311950Y229389D01*
X311751Y229091D01*
X311681Y228740D01*
Y223608D01*
X311234Y223162D01*
X306854D01*
X306850Y223166D01*
X306632Y223662D01*
X306742Y223826D01*
X306769Y223963D01*
X304528D01*
Y224463D01*
X306769D01*
X306742Y224600D01*
X306522Y224928D01*
Y225466D01*
X306742Y225794D01*
X306769Y225931D01*
X304528D01*
Y226181D01*
X304278D01*
Y227193D01*
X303248D01*
X302861Y227116D01*
X302764Y227051D01*
X302396Y227232D01*
X302298Y227462D01*
X302407Y227625D01*
X302491Y228051D01*
Y230610D01*
X302407Y231036D01*
X302391Y231060D01*
Y234055D01*
X302314Y234443D01*
X302094Y234771D01*
X301277Y235589D01*
X301484Y236089D01*
X302100D01*
Y240289D01*
X302477Y240586D01*
X302859Y240842D01*
X303253Y241431D01*
X303391Y242126D01*
X303253Y242821D01*
X302859Y243410D01*
X302270Y243804D01*
X301575Y243942D01*
X300880Y243804D01*
X300291Y243410D01*
X299897Y242821D01*
X299759Y242126D01*
X299775Y242043D01*
X299142Y241409D01*
X298879Y241016D01*
X298786Y240551D01*
X298406Y240289D01*
X297900D01*
Y239202D01*
X296588D01*
Y240289D01*
X292388D01*
Y236089D01*
X293475D01*
Y235065D01*
X292788Y234378D01*
X292568Y234049D01*
X292491Y233661D01*
Y231767D01*
X291991Y231499D01*
X291922Y231545D01*
X291785Y231572D01*
Y229331D01*
X291285D01*
Y231572D01*
X291148Y231545D01*
X290947Y231410D01*
X290354Y231398D01*
X289993Y231639D01*
X289567Y231724D01*
X289141Y231639D01*
X288923Y231493D01*
X288583Y231433D01*
X288242Y231493D01*
X288025Y231639D01*
X287598Y231724D01*
X287172Y231639D01*
X286811Y231398D01*
X286570Y231036D01*
X286485Y230610D01*
Y228051D01*
X286570Y227625D01*
X286680Y227460D01*
X286319Y227100D01*
X286155Y227210D01*
X285728Y227295D01*
X283169D01*
X282743Y227210D01*
X282382Y226969D01*
X282140Y226607D01*
X282056Y226181D01*
X282140Y225755D01*
X282286Y225537D01*
X282347Y225197D01*
X282286Y224856D01*
X282140Y224639D01*
X282056Y224213D01*
X282140Y223786D01*
X282286Y223569D01*
X282347Y223228D01*
X282286Y222888D01*
X282140Y222670D01*
X282056Y222244D01*
X282140Y221818D01*
X282286Y221600D01*
X282347Y221260D01*
X282286Y220919D01*
X282140Y220702D01*
X282056Y220276D01*
X282140Y219849D01*
X282286Y219632D01*
X282347Y219291D01*
X282286Y218951D01*
X282140Y218733D01*
X282056Y218307D01*
X282140Y217881D01*
X282286Y217663D01*
X282347Y217323D01*
X282286Y216982D01*
X282140Y216765D01*
X282056Y216339D01*
X282140Y215912D01*
X282286Y215695D01*
X282347Y215354D01*
X282286Y215014D01*
X282140Y214796D01*
X282056Y214370D01*
X282140Y213944D01*
X282382Y213583D01*
X282369Y212990D01*
X282235Y212789D01*
X282207Y212652D01*
X284449D01*
Y212402D01*
X284699D01*
Y211390D01*
X285728D01*
X286116Y211467D01*
X286213Y211532D01*
X286580Y211351D01*
X286679Y211121D01*
X286570Y210958D01*
X286485Y210531D01*
Y207972D01*
X286570Y207546D01*
X286585Y207523D01*
Y203281D01*
X285302D01*
Y199081D01*
X289502D01*
Y199574D01*
X290795D01*
X290842Y199503D01*
X291431Y199110D01*
X292126Y198971D01*
X292821Y199110D01*
X293410Y199503D01*
X293804Y200093D01*
X293942Y200787D01*
X293804Y201482D01*
X293410Y202071D01*
X292821Y202465D01*
X292126Y202603D01*
X291431Y202465D01*
X290842Y202071D01*
X290795Y202001D01*
X289502D01*
Y203281D01*
X288612D01*
Y206696D01*
X289112Y206963D01*
X289141Y206944D01*
X289567Y206859D01*
X289993Y206944D01*
X290211Y207089D01*
X290551Y207150D01*
X290892Y207089D01*
X291109Y206944D01*
X291535Y206859D01*
X291962Y206944D01*
X292179Y207089D01*
X292520Y207150D01*
X292860Y207089D01*
X293078Y206944D01*
X293504Y206859D01*
X293930Y206944D01*
X294055Y207027D01*
X294555Y206760D01*
Y195585D01*
X294332Y195436D01*
X293934Y194841D01*
X293795Y194139D01*
Y189647D01*
X293295Y189597D01*
X293247Y189835D01*
X292984Y190228D01*
X290622Y192591D01*
X290228Y192854D01*
X289764Y192946D01*
X289764Y192946D01*
X280315D01*
X280315Y192946D01*
X279927Y192869D01*
X279850Y192854D01*
X279457Y192591D01*
X279457Y192591D01*
X278287Y191421D01*
X278024Y191027D01*
X277932Y190563D01*
X277932Y190563D01*
Y189895D01*
X277046D01*
Y185695D01*
X277329D01*
Y184999D01*
X277293Y184975D01*
X276910Y184402D01*
X276776Y183725D01*
Y180452D01*
X276910Y179776D01*
X277293Y179203D01*
X277867Y178819D01*
X278543Y178685D01*
X279220Y178819D01*
X279793Y179203D01*
X280176Y179776D01*
X280311Y180452D01*
Y183725D01*
X280176Y184402D01*
X279793Y184975D01*
X279757Y184999D01*
Y185695D01*
X281246D01*
Y189895D01*
X281246D01*
X281103Y190395D01*
X281185Y190518D01*
X289261D01*
X290912Y188867D01*
Y185827D01*
X290912Y185827D01*
X291004Y185362D01*
X291268Y184968D01*
X292842Y183394D01*
X292842Y183394D01*
X293236Y183131D01*
X293701Y183038D01*
X299606D01*
X299606Y183038D01*
X300071Y183131D01*
X300465Y183394D01*
X301488Y184417D01*
X301488Y184417D01*
X301751Y184811D01*
X301844Y185276D01*
X301844Y185276D01*
Y187185D01*
X301928Y187241D01*
X302326Y187836D01*
X302465Y188539D01*
Y194139D01*
X302326Y194841D01*
X301928Y195436D01*
X301332Y195834D01*
X300630Y195974D01*
X299928Y195834D01*
X299332Y195436D01*
X298934Y194841D01*
X298795Y194139D01*
Y188539D01*
X298934Y187836D01*
X299332Y187241D01*
X299416Y187185D01*
Y185778D01*
X299103Y185466D01*
X294204D01*
X293340Y186330D01*
Y188262D01*
X293840Y188311D01*
X293934Y187836D01*
X294332Y187241D01*
X294928Y186843D01*
X295630Y186703D01*
X296332Y186843D01*
X296928Y187241D01*
X297325Y187836D01*
X297465Y188539D01*
Y194139D01*
X297325Y194841D01*
X296928Y195436D01*
X296390Y195796D01*
Y203198D01*
X296505Y203280D01*
X296890Y203387D01*
X298170Y202107D01*
X298468Y201908D01*
X298819Y201838D01*
X308675D01*
X309712Y200801D01*
Y195939D01*
X308830D01*
Y186739D01*
X312430D01*
Y195939D01*
X311548D01*
Y201181D01*
X311489Y201474D01*
X311478Y201532D01*
X311279Y201830D01*
X309802Y203307D01*
X309909Y203691D01*
X309991Y203807D01*
X320663D01*
X320930Y203307D01*
X320763Y203057D01*
X320625Y202362D01*
X320763Y201667D01*
X321157Y201078D01*
X321239Y201023D01*
Y196588D01*
X320353D01*
Y192388D01*
X320833D01*
Y188691D01*
X318888D01*
Y188222D01*
X316929D01*
X316929Y188222D01*
X316465Y188129D01*
X316071Y187866D01*
X316071Y187866D01*
X307765Y179560D01*
X299213D01*
X299213Y179560D01*
X298748Y179468D01*
X298354Y179205D01*
X294772Y175622D01*
X294508Y175228D01*
X294416Y174764D01*
X294416Y174764D01*
Y173492D01*
X294332Y173436D01*
X293934Y172841D01*
X293795Y172139D01*
Y166539D01*
X293934Y165836D01*
X294332Y165241D01*
X294928Y164843D01*
X295630Y164703D01*
X296332Y164843D01*
X296928Y165241D01*
X297325Y165836D01*
X297465Y166539D01*
Y172139D01*
X297325Y172841D01*
X296928Y173436D01*
X296844Y173492D01*
Y174261D01*
X299715Y177133D01*
X308268D01*
X308268Y177133D01*
X308732Y177225D01*
X309126Y177488D01*
X317432Y185794D01*
X318888D01*
Y185325D01*
X324378D01*
X324732Y185264D01*
X324732D01*
D01*
X324737Y185263D01*
X324835Y185246D01*
X324837Y185245D01*
X324842Y185245D01*
X324842Y185245D01*
X324844Y185244D01*
X324844Y185244D01*
X324845Y185244D01*
Y185240D01*
X324845Y185237D01*
X324845Y185232D01*
X324845Y185206D01*
Y185189D01*
Y185147D01*
Y185136D01*
Y185118D01*
Y185085D01*
Y185058D01*
X324845Y184992D01*
Y184992D01*
Y184825D01*
Y183177D01*
X322642D01*
Y181102D01*
Y179028D01*
X324491D01*
X324845Y178674D01*
Y177380D01*
X324845Y177213D01*
Y177213D01*
X324845Y177146D01*
Y177120D01*
Y177087D01*
Y177069D01*
Y177057D01*
Y177015D01*
Y176998D01*
Y176972D01*
Y176968D01*
X324845Y176964D01*
Y176961D01*
X324844Y176961D01*
X324844Y176961D01*
X324842Y176960D01*
X324842Y176960D01*
X324837Y176959D01*
X324835Y176959D01*
X324737Y176942D01*
X324732Y176941D01*
D01*
D01*
X324378Y176880D01*
X324378D01*
X318888D01*
Y173514D01*
X320444D01*
Y170210D01*
X319959D01*
Y166010D01*
X320432D01*
Y164962D01*
X320370Y164868D01*
X320231Y164173D01*
X320370Y163478D01*
X320763Y162889D01*
X321352Y162496D01*
X322047Y162357D01*
X322742Y162496D01*
X323331Y162889D01*
X323725Y163478D01*
X323863Y164173D01*
X323725Y164868D01*
X323662Y164962D01*
Y166010D01*
X324159D01*
Y170210D01*
X323674D01*
Y173514D01*
X325206D01*
Y176461D01*
X325206Y176627D01*
Y176627D01*
X325206Y176694D01*
Y176720D01*
Y176753D01*
Y176771D01*
Y176783D01*
Y176825D01*
Y176842D01*
Y176868D01*
Y176873D01*
X325206Y176876D01*
Y176880D01*
X325207Y176880D01*
X325207Y176880D01*
X325209Y176880D01*
X325209Y176880D01*
X325213Y176881D01*
X325216Y176881D01*
X325314Y176898D01*
X325319Y176899D01*
D01*
D01*
X325673Y176961D01*
X331246D01*
Y181102D01*
Y185244D01*
X325673D01*
X325319Y185306D01*
X325319D01*
D01*
X325314Y185307D01*
X325216Y185324D01*
X325213Y185324D01*
X325209Y185325D01*
X325209Y185325D01*
X325207Y185325D01*
X325207Y185325D01*
X325206Y185325D01*
Y185329D01*
X325206Y185332D01*
X325206Y185337D01*
X325206Y185363D01*
Y185380D01*
Y185422D01*
Y185433D01*
Y185451D01*
Y185484D01*
Y185511D01*
X325206Y185578D01*
Y185578D01*
Y185744D01*
Y188691D01*
X323261D01*
Y192388D01*
X324553D01*
Y196588D01*
X323667D01*
Y201039D01*
X323725Y201078D01*
X324119Y201667D01*
X324257Y202362D01*
X324119Y203057D01*
X323952Y203307D01*
X324219Y203807D01*
X328967D01*
X329333Y203384D01*
X329286Y203150D01*
X329425Y202455D01*
X329818Y201866D01*
X330407Y201472D01*
X331102Y201334D01*
X331797Y201472D01*
X332386Y201866D01*
X332780Y202455D01*
X332918Y203150D01*
X332780Y203845D01*
X332386Y204434D01*
X331797Y204827D01*
X331525Y204882D01*
X331574Y205382D01*
X332723D01*
X332968Y205015D01*
X333557Y204622D01*
X334252Y204483D01*
X334803Y204593D01*
X335303Y204304D01*
Y192520D01*
X335373Y192168D01*
X335572Y191871D01*
X340296Y187146D01*
X340594Y186948D01*
X340652Y186936D01*
X340945Y186878D01*
X344108D01*
X345145Y185840D01*
Y184765D01*
X343963D01*
Y180565D01*
X348163D01*
Y184765D01*
X346981D01*
Y186221D01*
X346922Y186513D01*
X346911Y186572D01*
X346712Y186869D01*
X345137Y188444D01*
X344839Y188643D01*
X344488Y188713D01*
X341325D01*
X337138Y192900D01*
Y205022D01*
X337181Y205086D01*
X337251Y205437D01*
Y209336D01*
X337192Y209629D01*
X337181Y209687D01*
X336982Y209985D01*
X333917Y213050D01*
X333619Y213249D01*
X333268Y213319D01*
X307020D01*
X306752Y213819D01*
X306836Y213944D01*
X306921Y214370D01*
X306836Y214796D01*
X306690Y215014D01*
X306630Y215354D01*
X306690Y215695D01*
X306836Y215912D01*
X306921Y216339D01*
X306836Y216765D01*
X306594Y217126D01*
Y217520D01*
X306836Y217881D01*
X306921Y218307D01*
X306836Y218733D01*
X306752Y218858D01*
X307020Y219358D01*
X314370D01*
X314721Y219428D01*
X315019Y219627D01*
X316872Y221480D01*
X317071Y221777D01*
X317141Y222128D01*
Y224609D01*
X318323D01*
Y225791D01*
X318441D01*
X318793Y225861D01*
X319090Y226060D01*
X319123Y226093D01*
X319623Y225886D01*
Y224609D01*
X320440D01*
Y222441D01*
X320440Y222441D01*
X320532Y221976D01*
X320795Y221583D01*
X321227Y221151D01*
Y217079D01*
X321157Y217032D01*
X320763Y216443D01*
X320625Y215748D01*
X320763Y215053D01*
X321157Y214464D01*
X321746Y214070D01*
X322441Y213932D01*
X323136Y214070D01*
X323725Y214464D01*
X324119Y215053D01*
X324257Y215748D01*
X324119Y216443D01*
X323725Y217032D01*
X323655Y217079D01*
Y221654D01*
X323562Y222118D01*
X323299Y222512D01*
X323299Y222512D01*
X322867Y222944D01*
Y224609D01*
X323823D01*
Y228809D01*
X322867D01*
Y230358D01*
X323692D01*
Y231244D01*
X327275D01*
X328657Y229862D01*
X328657Y229862D01*
X329051Y229599D01*
X329516Y229507D01*
X329516Y229507D01*
X333333D01*
Y228621D01*
X337533D01*
Y232821D01*
X333333D01*
Y231934D01*
X330018D01*
X328636Y233317D01*
X328242Y233580D01*
X327778Y233672D01*
X327778Y233672D01*
X323692D01*
Y234558D01*
X322867D01*
Y238433D01*
X322938Y238480D01*
X323331Y239069D01*
X323469Y239764D01*
X323331Y240459D01*
X322938Y241048D01*
X322348Y241441D01*
X321654Y241580D01*
X320959Y241441D01*
X320369Y241048D01*
X319976Y240459D01*
X319838Y239764D01*
X319976Y239069D01*
X320369Y238480D01*
X320440Y238433D01*
Y234558D01*
X319815D01*
Y237795D01*
X319757Y238088D01*
X319745Y238146D01*
X319547Y238444D01*
X313929Y244062D01*
Y245276D01*
X346850D01*
X349606Y242520D01*
D02*
G37*
G36*
X310893Y241732D02*
X310963Y241381D01*
X311162Y241083D01*
X312050Y240196D01*
X311964Y239764D01*
X312102Y239069D01*
X312495Y238480D01*
X313085Y238086D01*
X313779Y237948D01*
X314475Y238086D01*
X315064Y238480D01*
X315457Y239069D01*
X315484Y239204D01*
X316027Y239369D01*
X317980Y237415D01*
Y234558D01*
X313992D01*
Y233376D01*
X313197D01*
X309954Y236619D01*
Y245276D01*
X310893D01*
Y241732D01*
D02*
G37*
%LPC*%
G36*
X348163Y179265D02*
X343963D01*
Y178083D01*
X343307D01*
X342956Y178013D01*
X342658Y177814D01*
X341477Y176633D01*
X341278Y176335D01*
X341208Y175984D01*
Y174235D01*
X341121Y174223D01*
X340184Y173835D01*
X339380Y173218D01*
X338763Y172414D01*
X338375Y171477D01*
X338243Y170473D01*
X338375Y169467D01*
X338763Y168531D01*
X339380Y167727D01*
X340184Y167110D01*
X341121Y166722D01*
X342126Y166589D01*
X343131Y166722D01*
X344068Y167110D01*
X344872Y167727D01*
X345489Y168531D01*
X345877Y169467D01*
X346009Y170473D01*
X345877Y171477D01*
X345489Y172414D01*
X344872Y173218D01*
X344068Y173835D01*
X343131Y174223D01*
X343044Y174235D01*
Y175604D01*
X343463Y176024D01*
X343963Y175816D01*
Y175065D01*
X348163D01*
Y179265D01*
D02*
G37*
G36*
X338148Y180852D02*
X331746D01*
Y176961D01*
X338148D01*
Y180852D01*
D02*
G37*
G36*
X310380Y173822D02*
X309967Y173740D01*
X309404Y173364D01*
X309029Y172802D01*
X308897Y172139D01*
Y169589D01*
X310380D01*
Y173822D01*
D02*
G37*
G36*
X310880D02*
Y169589D01*
X312363D01*
Y172139D01*
X312231Y172802D01*
X311856Y173364D01*
X311293Y173740D01*
X310880Y173822D01*
D02*
G37*
G36*
X284646Y178083D02*
X279528D01*
X279235Y178025D01*
X279176Y178013D01*
X278879Y177814D01*
X277894Y176830D01*
X277695Y176532D01*
X277669Y176399D01*
X276810D01*
Y169659D01*
X276901D01*
X276991Y169507D01*
X277046Y169029D01*
X277046D01*
Y164829D01*
X277530D01*
Y163405D01*
X277456Y163293D01*
X277318Y162598D01*
X277456Y161904D01*
X277850Y161314D01*
X278439Y160921D01*
X279134Y160782D01*
X279829Y160921D01*
X280418Y161314D01*
X280812Y161904D01*
X280950Y162598D01*
X280812Y163293D01*
X280761Y163369D01*
Y164829D01*
X281246D01*
Y169029D01*
X280748D01*
X280360Y169280D01*
X280277Y169695D01*
Y170368D01*
X280361Y170430D01*
X281041Y170312D01*
X281106Y170215D01*
X281646Y169854D01*
X282033Y169777D01*
Y173029D01*
X282534D01*
Y169777D01*
X282921Y169854D01*
X283461Y170215D01*
X283822Y170756D01*
X283848Y170884D01*
X284358D01*
X284391Y170717D01*
X284774Y170143D01*
X285347Y169760D01*
X286024Y169625D01*
X286700Y169760D01*
X287273Y170143D01*
X287657Y170717D01*
X287791Y171393D01*
Y174666D01*
X287657Y175342D01*
X287273Y175916D01*
X286816Y176221D01*
X286672Y176436D01*
X285295Y177814D01*
X284997Y178013D01*
X284646Y178083D01*
D02*
G37*
G36*
X286646Y187545D02*
X284896D01*
Y185795D01*
X285170D01*
X285181Y185767D01*
X285253Y185295D01*
X284774Y184975D01*
X284391Y184402D01*
X284256Y183725D01*
Y180452D01*
X284391Y179776D01*
X284774Y179203D01*
X285347Y178819D01*
X286024Y178685D01*
X286700Y178819D01*
X287273Y179203D01*
X287657Y179776D01*
X287791Y180452D01*
Y183725D01*
X287657Y184402D01*
X287273Y184975D01*
X286811Y185284D01*
X286657Y185737D01*
X286646Y186221D01*
Y186243D01*
Y186266D01*
Y186266D01*
X286646D01*
Y187545D01*
D02*
G37*
G36*
X305380Y191089D02*
X303897D01*
Y188539D01*
X304029Y187875D01*
X304404Y187313D01*
X304967Y186937D01*
X305380Y186855D01*
Y191089D01*
D02*
G37*
G36*
X307363D02*
X305880D01*
Y186855D01*
X306293Y186937D01*
X306856Y187313D01*
X307231Y187875D01*
X307363Y188539D01*
Y191089D01*
D02*
G37*
G36*
X286646Y189795D02*
X284896D01*
Y188045D01*
X286646D01*
Y189795D01*
D02*
G37*
G36*
X284396D02*
X282646D01*
Y188045D01*
X284396D01*
Y189795D01*
D02*
G37*
G36*
X338148Y185244D02*
X331746D01*
Y181352D01*
X338148D01*
Y185244D01*
D02*
G37*
G36*
X322142Y180852D02*
X318988D01*
Y179028D01*
X322142D01*
Y180852D01*
D02*
G37*
G36*
X284396Y187545D02*
X282646D01*
Y185795D01*
X284396D01*
Y187545D01*
D02*
G37*
G36*
X322142Y183177D02*
X318988D01*
Y181352D01*
X322142D01*
Y183177D01*
D02*
G37*
G36*
X342376Y164222D02*
Y160722D01*
X345875D01*
X345779Y161451D01*
X345402Y162364D01*
X344800Y163147D01*
X344017Y163748D01*
X343105Y164126D01*
X342376Y164222D01*
D02*
G37*
G36*
X312363Y169089D02*
X310880D01*
Y164855D01*
X311293Y164937D01*
X311856Y165313D01*
X312231Y165875D01*
X312363Y166539D01*
Y169089D01*
D02*
G37*
G36*
X310380D02*
X308897D01*
Y166539D01*
X309029Y165875D01*
X309404Y165313D01*
X309967Y164937D01*
X310380Y164855D01*
Y169089D01*
D02*
G37*
G36*
X341876Y164222D02*
X341147Y164126D01*
X340235Y163748D01*
X339452Y163147D01*
X338850Y162364D01*
X338473Y161451D01*
X338376Y160722D01*
X341876D01*
Y164222D01*
D02*
G37*
G36*
X298274Y160618D02*
X295024D01*
Y154069D01*
X298274D01*
Y160618D01*
D02*
G37*
G36*
X341876Y160222D02*
X338376D01*
X338473Y159494D01*
X338850Y158581D01*
X339452Y157798D01*
X340235Y157197D01*
X341147Y156819D01*
X341876Y156723D01*
Y160222D01*
D02*
G37*
G36*
X345875D02*
X342376D01*
Y156723D01*
X343105Y156819D01*
X344017Y157197D01*
X344800Y157798D01*
X345402Y158581D01*
X345779Y159494D01*
X345875Y160222D01*
D02*
G37*
G36*
X284396Y166679D02*
X282646D01*
Y164929D01*
X284396D01*
Y166679D01*
D02*
G37*
G36*
X286646Y168929D02*
X284896D01*
Y167179D01*
X286646D01*
Y168929D01*
D02*
G37*
G36*
X327309Y170110D02*
X325559D01*
Y168360D01*
X327309D01*
Y170110D01*
D02*
G37*
G36*
X329559D02*
X327809D01*
Y168360D01*
X329559D01*
Y170110D01*
D02*
G37*
G36*
X284396Y168929D02*
X282646D01*
Y167179D01*
X284396D01*
Y168929D01*
D02*
G37*
G36*
X286646Y166679D02*
X284896D01*
Y164929D01*
X286646D01*
Y166679D01*
D02*
G37*
G36*
X327309Y167860D02*
X325559D01*
Y166110D01*
X327309D01*
Y167860D01*
D02*
G37*
G36*
X329559D02*
X327809D01*
Y166110D01*
X329559D01*
Y167860D01*
D02*
G37*
G36*
X344094Y239646D02*
X343167Y239524D01*
X342303Y239166D01*
X341561Y238597D01*
X340991Y237855D01*
X340633Y236990D01*
X340511Y236063D01*
X340633Y235136D01*
X340991Y234271D01*
X341561Y233529D01*
X342303Y232960D01*
X343167Y232602D01*
X344094Y232480D01*
X345022Y232602D01*
X345886Y232960D01*
X346628Y233529D01*
X347198Y234271D01*
X347556Y235136D01*
X347678Y236063D01*
X347556Y236990D01*
X347198Y237855D01*
X346628Y238597D01*
X345886Y239166D01*
X345022Y239524D01*
X344094Y239646D01*
D02*
G37*
G36*
X288738Y237939D02*
X286988D01*
Y236189D01*
X288738D01*
Y237939D01*
D02*
G37*
G36*
X290988D02*
X289238D01*
Y236189D01*
X290988D01*
Y237939D01*
D02*
G37*
G36*
X305807Y227193D02*
X304778D01*
Y226431D01*
X306769D01*
X306742Y226568D01*
X306522Y226896D01*
X306194Y227116D01*
X305807Y227193D01*
D02*
G37*
G36*
X343845Y219513D02*
X343193Y219427D01*
X342353Y219079D01*
X341632Y218526D01*
X341078Y217804D01*
X340731Y216964D01*
X340645Y216313D01*
X343845D01*
Y219513D01*
D02*
G37*
G36*
X344344D02*
Y216313D01*
X347544D01*
X347458Y216964D01*
X347110Y217804D01*
X346557Y218526D01*
X345836Y219079D01*
X344996Y219427D01*
X344344Y219513D01*
D02*
G37*
G36*
X344094Y229646D02*
X343167Y229524D01*
X342303Y229166D01*
X341561Y228597D01*
X340991Y227855D01*
X340633Y226991D01*
X340511Y226063D01*
X340633Y225136D01*
X340991Y224271D01*
X341561Y223529D01*
X342303Y222960D01*
X343167Y222602D01*
X344094Y222480D01*
X345022Y222602D01*
X345886Y222960D01*
X346628Y223529D01*
X347198Y224271D01*
X347556Y225136D01*
X347678Y226063D01*
X347556Y226991D01*
X347198Y227855D01*
X346628Y228597D01*
X345886Y229166D01*
X345022Y229524D01*
X344094Y229646D01*
D02*
G37*
G36*
X305250Y240189D02*
X303500D01*
Y238439D01*
X305250D01*
Y240189D01*
D02*
G37*
G36*
X307500D02*
X305750D01*
Y238439D01*
X307500D01*
Y240189D01*
D02*
G37*
G36*
X290988D02*
X289238D01*
Y238439D01*
X290988D01*
Y240189D01*
D02*
G37*
G36*
X288738D02*
X286988D01*
Y238439D01*
X288738D01*
Y240189D01*
D02*
G37*
G36*
X305250Y237939D02*
X303500D01*
Y236189D01*
X305250D01*
Y237939D01*
D02*
G37*
G36*
X307500D02*
X305750D01*
Y236189D01*
X307500D01*
Y237939D01*
D02*
G37*
G36*
X337533Y238320D02*
X333333D01*
Y237138D01*
X332631D01*
X332386Y237505D01*
X331797Y237898D01*
X331102Y238036D01*
X330407Y237898D01*
X329818Y237505D01*
X329425Y236915D01*
X329286Y236221D01*
X329425Y235525D01*
X329818Y234936D01*
X330407Y234543D01*
X331102Y234404D01*
X331797Y234543D01*
X332386Y234936D01*
X332631Y235303D01*
X333333D01*
Y234120D01*
X337533D01*
Y238320D01*
D02*
G37*
G36*
X347544Y215813D02*
X344344D01*
Y212613D01*
X344996Y212699D01*
X345836Y213047D01*
X346557Y213600D01*
X347110Y214322D01*
X347458Y215162D01*
X347544Y215813D01*
D02*
G37*
G36*
X347647Y199616D02*
X340542D01*
Y192510D01*
X347647D01*
Y199616D01*
D02*
G37*
G36*
X327703Y196488D02*
X325953D01*
Y194738D01*
X327703D01*
Y196488D01*
D02*
G37*
G36*
X329953D02*
X328203D01*
Y194738D01*
X329953D01*
Y196488D01*
D02*
G37*
G36*
Y194238D02*
X328203D01*
Y192488D01*
X329953D01*
Y194238D01*
D02*
G37*
G36*
X305380Y195822D02*
X304967Y195740D01*
X304404Y195364D01*
X304029Y194802D01*
X303897Y194139D01*
Y191589D01*
X305380D01*
Y195822D01*
D02*
G37*
G36*
X305880D02*
Y191589D01*
X307363D01*
Y194139D01*
X307231Y194802D01*
X306856Y195364D01*
X306293Y195740D01*
X305880Y195822D01*
D02*
G37*
G36*
X327703Y194238D02*
X325953D01*
Y192488D01*
X327703D01*
Y194238D01*
D02*
G37*
G36*
X344094Y209646D02*
X343167Y209524D01*
X342303Y209166D01*
X341561Y208597D01*
X340991Y207855D01*
X340633Y206991D01*
X340511Y206063D01*
X340633Y205136D01*
X340991Y204271D01*
X341561Y203529D01*
X342303Y202960D01*
X343167Y202602D01*
X344094Y202480D01*
X345022Y202602D01*
X345886Y202960D01*
X346628Y203529D01*
X347198Y204271D01*
X347556Y205136D01*
X347678Y206063D01*
X347556Y206991D01*
X347198Y207855D01*
X346628Y208597D01*
X345886Y209166D01*
X345022Y209524D01*
X344094Y209646D01*
D02*
G37*
G36*
X284199Y212152D02*
X282207D01*
X282235Y212015D01*
X282454Y211686D01*
X282782Y211467D01*
X283169Y211390D01*
X284199D01*
Y212152D01*
D02*
G37*
G36*
X343845Y215813D02*
X340645D01*
X340731Y215162D01*
X341078Y214322D01*
X341632Y213600D01*
X342353Y213047D01*
X343193Y212699D01*
X343845Y212613D01*
Y215813D01*
D02*
G37*
G36*
X283902Y203181D02*
X282152D01*
Y201431D01*
X283902D01*
Y203181D01*
D02*
G37*
G36*
X281651Y200931D02*
X279902D01*
Y199181D01*
X281651D01*
Y200931D01*
D02*
G37*
G36*
X283902D02*
X282152D01*
Y199181D01*
X283902D01*
Y200931D01*
D02*
G37*
G36*
X281651Y203181D02*
X279902D01*
Y201431D01*
X281651D01*
Y203181D01*
D02*
G37*
%LPD*%
D10*
X328524Y153819D02*
D03*
X318524D02*
D03*
X308524D02*
D03*
X298524D02*
D03*
D11*
X295630Y169339D02*
D03*
Y191339D02*
D03*
X305630Y169339D02*
D03*
X310630D02*
D03*
X305630Y191339D02*
D03*
X300630D02*
D03*
Y169339D02*
D03*
D12*
X310630Y191339D02*
D03*
D13*
X322047Y187008D02*
D03*
Y175197D02*
D03*
D14*
X322392Y181102D02*
D03*
D15*
X331496D02*
D03*
D16*
X278543Y182089D02*
D03*
X286024D02*
D03*
Y173029D02*
D03*
X282283D02*
D03*
D17*
X278543D02*
D03*
D18*
X335433Y236221D02*
D03*
Y230720D02*
D03*
X346063Y177165D02*
D03*
Y182665D02*
D03*
D19*
X327559Y168110D02*
D03*
X322059D02*
D03*
X284646Y187795D02*
D03*
X279146D02*
D03*
X284646Y166929D02*
D03*
X279146D02*
D03*
X327953Y194488D02*
D03*
X322453D02*
D03*
X316223Y226709D02*
D03*
X321723D02*
D03*
X316092Y232458D02*
D03*
X321592D02*
D03*
X308268Y262598D02*
D03*
X313768D02*
D03*
X294488Y238189D02*
D03*
X288988D02*
D03*
X287402Y201181D02*
D03*
X281902D02*
D03*
X300000Y238189D02*
D03*
X305500D02*
D03*
D20*
X301378Y229331D02*
D03*
X299410D02*
D03*
X297441D02*
D03*
X295472D02*
D03*
X293504D02*
D03*
X291535D02*
D03*
X289567D02*
D03*
X287598D02*
D03*
Y209252D02*
D03*
X289567D02*
D03*
X291535D02*
D03*
X293504D02*
D03*
X295472D02*
D03*
X297441D02*
D03*
X299410D02*
D03*
X301378D02*
D03*
D21*
X284449Y226181D02*
D03*
Y224213D02*
D03*
Y222244D02*
D03*
Y220276D02*
D03*
Y218307D02*
D03*
Y216339D02*
D03*
Y214370D02*
D03*
Y212402D02*
D03*
X304528D02*
D03*
Y214370D02*
D03*
Y216339D02*
D03*
Y218307D02*
D03*
Y220276D02*
D03*
Y222244D02*
D03*
Y224213D02*
D03*
Y226181D02*
D03*
D22*
X294488Y219291D02*
D03*
D23*
X305315Y273228D02*
D03*
X316732D02*
D03*
Y277165D02*
D03*
X305315D02*
D03*
Y269291D02*
D03*
X316732D02*
D03*
D24*
X311024Y273228D02*
D03*
D25*
X322047Y164173D02*
Y168098D01*
X322047Y175197D02*
X322059Y175185D01*
Y168110D02*
Y175185D01*
X322047Y168098D02*
X322059Y168110D01*
X279146Y162610D02*
Y166929D01*
X323622Y153937D02*
X328405D01*
X318642D02*
X323622D01*
D26*
X342126Y170473D02*
Y175984D01*
X343307Y177165D01*
X346063D01*
Y182665D02*
Y186221D01*
X344488Y187795D02*
X346063Y186221D01*
X340945Y187795D02*
X344488D01*
X336221Y192520D02*
X340945Y187795D01*
X336221Y192520D02*
Y205325D01*
X333268Y212402D02*
X336333Y209336D01*
Y205437D02*
Y209336D01*
X336221Y205325D02*
X336333Y205437D01*
X304528Y212402D02*
X333268D01*
X284449D02*
X287598D01*
X291535Y222244D02*
Y229331D01*
X299410Y224213D02*
X304528D01*
X301378Y226181D02*
X304528D01*
X284646Y177165D02*
X286024Y175787D01*
X279528Y177165D02*
X284646D01*
X286024Y173029D02*
Y175787D01*
X278543Y176181D02*
X279528Y177165D01*
X278543Y173029D02*
Y176181D01*
X305630Y163898D02*
Y169339D01*
X301575Y161417D02*
X307874D01*
X300630Y162362D02*
X301575Y161417D01*
X300630Y162362D02*
Y169339D01*
X307874Y161417D02*
X308524Y160768D01*
Y153819D02*
Y160768D01*
X310630Y191339D02*
Y201181D01*
X309055Y202756D02*
X310630Y201181D01*
X298819Y202756D02*
X309055D01*
X297441Y204134D02*
X298819Y202756D01*
X297441Y204134D02*
Y209252D01*
X295472Y191496D02*
X295630Y191339D01*
X295472Y191496D02*
Y209252D01*
X329528Y204724D02*
X331102Y203150D01*
X300787Y204724D02*
X329528D01*
X299410Y206102D02*
X300787Y204724D01*
X299410Y206102D02*
Y209252D01*
X301969Y206299D02*
X334252D01*
X301378Y206890D02*
X301969Y206299D01*
X301378Y206890D02*
Y209252D01*
X296457Y233465D02*
X298031D01*
X295472Y232480D02*
X296457Y233465D01*
X321592Y232458D02*
X321654Y232520D01*
X331102Y236221D02*
X335433D01*
X295472Y229331D02*
Y232480D01*
X304528Y222244D02*
X311614D01*
X312598Y223228D01*
Y228740D01*
X313386Y229528D01*
X315354D01*
X316092Y230265D01*
Y232458D01*
X312817D02*
X316092D01*
X309036Y236239D02*
X312817Y232458D01*
X310236Y239764D02*
X313386Y236614D01*
X310236Y239764D02*
Y258661D01*
X311811Y241732D02*
X313779Y239764D01*
X311811Y241732D02*
Y258661D01*
X318898Y227165D02*
Y237795D01*
X313011Y243682D02*
X318898Y237795D01*
X313011Y243682D02*
Y257499D01*
X304528Y220276D02*
X314370D01*
X316223Y222128D01*
Y226709D01*
X318441D01*
X318898Y227165D01*
X303150Y273228D02*
X305315D01*
X302362Y272441D02*
X303150Y273228D01*
X302362Y264567D02*
Y272441D01*
X308279Y260618D02*
X310236Y258661D01*
X308279Y260618D02*
Y262598D01*
X303150Y277165D02*
X305315D01*
X300787Y274803D02*
X303150Y277165D01*
X302362Y264567D02*
X304331Y262598D01*
X308279D01*
X300787Y264173D02*
Y274803D01*
Y264173D02*
X305906Y259055D01*
X307480D01*
X309036Y257499D01*
Y236239D02*
Y257499D01*
X313011D02*
X314567Y259055D01*
X316142D01*
X321260Y264173D01*
Y274803D01*
X313768Y262598D02*
X317717D01*
X319685Y264567D01*
X318898Y277165D02*
X321260Y274803D01*
X316732Y277165D02*
X318898D01*
X313768Y260618D02*
Y262598D01*
X311811Y258661D02*
X313768Y260618D01*
X319685Y264567D02*
Y272441D01*
X318898Y273228D02*
X319685Y272441D01*
X316732Y273228D02*
X318898D01*
D27*
X287598Y201378D02*
Y209252D01*
X300000Y235433D02*
Y238189D01*
Y235433D02*
X301378Y234055D01*
Y229331D02*
Y234055D01*
X294488Y238189D02*
X300000D01*
X294488Y234646D02*
Y238189D01*
X293504Y233661D02*
X294488Y234646D01*
X293504Y229331D02*
Y233661D01*
D28*
X287795Y200787D02*
X292126D01*
X308268Y178347D02*
X316929Y187008D01*
X299213Y178347D02*
X308268D01*
X295630Y174764D02*
X299213Y178347D01*
X316929Y187008D02*
X322047D01*
X295630Y169339D02*
Y174764D01*
X329516Y230720D02*
X335433D01*
X327778Y232458D02*
X329516Y230720D01*
X321592Y232458D02*
X327778D01*
X321654Y222441D02*
Y232397D01*
X321592Y232458D02*
X321654Y232397D01*
Y222441D02*
X322441Y221654D01*
Y215748D02*
Y221654D01*
Y201945D02*
Y202362D01*
Y201945D02*
X322453Y201957D01*
Y194488D02*
Y201957D01*
X322047Y194083D02*
X322453Y194488D01*
X322047Y187008D02*
Y194083D01*
X300630Y185276D02*
Y191339D01*
X299606Y184252D02*
X300630Y185276D01*
X293701Y184252D02*
X299606D01*
X292126Y185827D02*
X293701Y184252D01*
X292126Y185827D02*
Y189370D01*
X289764Y191732D02*
X292126Y189370D01*
X280315Y191732D02*
X289764D01*
X279146Y190563D02*
X280315Y191732D01*
X279146Y187795D02*
Y190563D01*
X278543Y182089D02*
Y187193D01*
X279146Y166929D02*
Y169280D01*
X278543Y169882D02*
X279146Y169280D01*
X278543Y169882D02*
Y173029D01*
X300000Y240551D02*
X301575Y242126D01*
X300000Y238189D02*
Y240551D01*
X321654Y232520D02*
Y239764D01*
D29*
X344094Y236063D02*
D03*
Y226063D02*
D03*
Y216063D02*
D03*
Y206063D02*
D03*
D30*
Y196063D02*
D03*
D31*
X342126Y160473D02*
D03*
Y170473D02*
D03*
D32*
X322047Y164173D02*
D03*
X292126Y200787D02*
D03*
X322441Y215748D02*
D03*
Y202362D02*
D03*
X279134Y162598D02*
D03*
X298524Y153819D02*
D03*
X323622Y153937D02*
D03*
X305630Y163898D02*
D03*
X331102Y203150D02*
D03*
X334252Y206299D02*
D03*
X301575Y242126D02*
D03*
X298031Y233465D02*
D03*
X331102Y236221D02*
D03*
X313386Y236614D02*
D03*
X321654Y239764D02*
D03*
X313779Y239764D02*
D03*
X298819Y223622D02*
D03*
Y219291D02*
D03*
Y214961D02*
D03*
X294488Y223622D02*
D03*
Y219291D02*
D03*
Y214961D02*
D03*
X290158Y223622D02*
D03*
Y219291D02*
D03*
Y214961D02*
D03*
D33*
X277953Y209055D02*
D03*
X279528Y238583D02*
D03*
X335039Y242126D02*
D03*
X330315Y219291D02*
D03*
X317323Y217323D02*
D03*
X316142Y209449D02*
D03*
X316535Y198031D02*
D03*
X335433Y164567D02*
D03*
X335827Y152362D02*
D03*
X281102Y153543D02*
D03*
X290551Y180709D02*
D03*
X305512Y182677D02*
D03*
M02*
