G04*
G04 #@! TF.GenerationSoftware,Altium Limited,CircuitStudio,1.5.2 (30)*
G04*
G04 Layer_Color=8388736*
%FSLAX25Y25*%
%MOIN*%
G70*
G01*
G75*
G04:AMPARAMS|DCode=16|XSize=55.4mil|YSize=22.67mil|CornerRadius=11.34mil|HoleSize=0mil|Usage=FLASHONLY|Rotation=90.000|XOffset=0mil|YOffset=0mil|HoleType=Round|Shape=RoundedRectangle|*
%AMROUNDEDRECTD16*
21,1,0.05540,0.00000,0,0,90.0*
21,1,0.03273,0.02267,0,0,90.0*
1,1,0.02267,0.00000,0.01636*
1,1,0.02267,0.00000,-0.01636*
1,1,0.02267,0.00000,-0.01636*
1,1,0.02267,0.00000,0.01636*
%
%ADD16ROUNDEDRECTD16*%
%ADD17R,0.02267X0.05540*%
%ADD41R,0.06591X0.13189*%
%ADD42O,0.02991X0.08591*%
%ADD43R,0.02991X0.08591*%
%ADD44R,0.05709X0.02756*%
%ADD45R,0.06398X0.03740*%
%ADD46R,0.12894X0.07874*%
%ADD47R,0.03591X0.03591*%
%ADD48R,0.03591X0.03591*%
%ADD49O,0.01575X0.04134*%
%ADD50O,0.04134X0.01575*%
%ADD51R,0.14764X0.14764*%
%ADD52R,0.03937X0.02362*%
%ADD53R,0.06890X0.10433*%
%ADD54C,0.06496*%
%ADD55R,0.06496X0.06496*%
%ADD56C,0.07091*%
%ADD57C,0.02953*%
D16*
X278543Y182089D02*
D03*
X286024D02*
D03*
Y173029D02*
D03*
X282283D02*
D03*
D17*
X278543D02*
D03*
D41*
X328524Y153819D02*
D03*
X318524D02*
D03*
X308524D02*
D03*
X298524D02*
D03*
D42*
X295630Y169339D02*
D03*
Y191339D02*
D03*
X305630Y169339D02*
D03*
X310630D02*
D03*
X305630Y191339D02*
D03*
X300630D02*
D03*
Y169339D02*
D03*
D43*
X310630Y191339D02*
D03*
D44*
X322047Y187008D02*
D03*
Y175197D02*
D03*
D45*
X322392Y181102D02*
D03*
D46*
X331496D02*
D03*
D47*
X335433Y236221D02*
D03*
Y230720D02*
D03*
X346063Y177165D02*
D03*
Y182665D02*
D03*
D48*
X327559Y168110D02*
D03*
X322059D02*
D03*
X284646Y187795D02*
D03*
X279146D02*
D03*
X284646Y166929D02*
D03*
X279146D02*
D03*
X327953Y194488D02*
D03*
X322453D02*
D03*
X316223Y226709D02*
D03*
X321723D02*
D03*
X316092Y232458D02*
D03*
X321592D02*
D03*
X308268Y262598D02*
D03*
X313768D02*
D03*
X294488Y238189D02*
D03*
X288988D02*
D03*
X287402Y201181D02*
D03*
X281902D02*
D03*
X300000Y238189D02*
D03*
X305500D02*
D03*
D49*
X301378Y229331D02*
D03*
X299410D02*
D03*
X297441D02*
D03*
X295472D02*
D03*
X293504D02*
D03*
X291535D02*
D03*
X289567D02*
D03*
X287598D02*
D03*
Y209252D02*
D03*
X289567D02*
D03*
X291535D02*
D03*
X293504D02*
D03*
X295472D02*
D03*
X297441D02*
D03*
X299410D02*
D03*
X301378D02*
D03*
D50*
X284449Y226181D02*
D03*
Y224213D02*
D03*
Y222244D02*
D03*
Y220276D02*
D03*
Y218307D02*
D03*
Y216339D02*
D03*
Y214370D02*
D03*
Y212402D02*
D03*
X304528D02*
D03*
Y214370D02*
D03*
Y216339D02*
D03*
Y218307D02*
D03*
Y220276D02*
D03*
Y222244D02*
D03*
Y224213D02*
D03*
Y226181D02*
D03*
D51*
X294488Y219291D02*
D03*
D52*
X305315Y273228D02*
D03*
X316732D02*
D03*
Y277165D02*
D03*
X305315D02*
D03*
Y269291D02*
D03*
X316732D02*
D03*
D53*
X311024Y273228D02*
D03*
D54*
X344094Y236063D02*
D03*
Y226063D02*
D03*
Y216063D02*
D03*
Y206063D02*
D03*
D55*
Y196063D02*
D03*
D56*
X342126Y160473D02*
D03*
Y170473D02*
D03*
D57*
X298819Y223622D02*
D03*
Y219291D02*
D03*
Y214961D02*
D03*
X294488Y223622D02*
D03*
Y219291D02*
D03*
Y214961D02*
D03*
X290158Y223622D02*
D03*
Y219291D02*
D03*
Y214961D02*
D03*
M02*
