M48
;Layer_Color=9474304
;FILE_FORMAT=2:5
INCH,LZ
;TYPE=PLATED
T1F00S00C0.01181
T2F00S00C0.03543
T3F00S00C0.04000
%
T01
X0281102Y0153543
X0298524Y0153819
X0323622Y0153937
X0335827Y0152362
X0335433Y0164567
X0322047Y0164173
X0322441Y0202362
X0331102Y020315
X0334252Y0206299
X0330315Y0219291
X0322441Y0215748
X0317323Y0217323
X0316142Y0209449
X0316535Y0198031
X0313386Y0236614
X0313779Y0239764
X0321654Y0239764
X0331102Y0236221
X0335039Y0242126
X0301575
X0298031Y0233465
X0298819Y0223622
Y0219291
Y0214961
X0294488
Y0219291
Y0223622
X0290158
Y0219291
Y0214961
X0292126Y0200787
X0290551Y0180709
X0305512Y0182677
X030563Y0163898
X0279134Y0162598
X0277953Y0209055
X0279528Y0238583
T02
X0344094Y0196063
Y0206063
Y0216063
Y0226063
Y0236063
T03
X0342126Y0160473
Y0170473
M30
