G04*
G04 #@! TF.GenerationSoftware,Altium Limited,CircuitStudio,1.5.2 (30)*
G04*
G04 Layer_Color=32896*
%FSLAX25Y25*%
%MOIN*%
G70*
G01*
G75*
%ADD28C,0.01181*%
%ADD36C,0.01000*%
%ADD58C,0.00630*%
D28*
X329526Y163779D02*
Y167191D01*
Y165485D01*
X324410D01*
Y171454D02*
Y169749D01*
X325262Y168896D01*
X326968D01*
X327820Y169749D01*
Y171454D01*
X326968Y172307D01*
X326115D01*
Y168896D01*
X324410Y174012D02*
X327820D01*
Y174865D01*
X326968Y175718D01*
X324410D01*
X326968D01*
X327820Y176571D01*
X326968Y177423D01*
X324410D01*
X322704Y179129D02*
X327820D01*
Y181687D01*
X326968Y182540D01*
X325262D01*
X324410Y181687D01*
Y179129D01*
X323557Y184245D02*
Y187656D01*
X324410Y189362D02*
Y191920D01*
X325262Y192773D01*
X326115Y191920D01*
Y190215D01*
X326968Y189362D01*
X327820Y190215D01*
Y192773D01*
X324410Y197037D02*
Y195331D01*
X325262Y194478D01*
X326968D01*
X327820Y195331D01*
Y197037D01*
X326968Y197889D01*
X326115D01*
Y194478D01*
X324410Y199595D02*
X327820D01*
Y202153D01*
X326968Y203006D01*
X324410D01*
Y204711D02*
Y207269D01*
X325262Y208122D01*
X326115Y207269D01*
Y205564D01*
X326968Y204711D01*
X327820Y205564D01*
Y208122D01*
X324410Y210680D02*
Y212386D01*
X325262Y213239D01*
X326968D01*
X327820Y212386D01*
Y210680D01*
X326968Y209828D01*
X325262D01*
X324410Y210680D01*
X327820Y214944D02*
X324410D01*
X326115D01*
X326968Y215797D01*
X327820Y216650D01*
Y217502D01*
X323557Y220061D02*
Y223472D01*
X327820Y228588D02*
Y226030D01*
X326968Y225177D01*
X325262D01*
X324410Y226030D01*
Y228588D01*
X327820Y231146D02*
Y232852D01*
X326968Y233704D01*
X324410D01*
Y231146D01*
X325262Y230293D01*
X326115Y231146D01*
Y233704D01*
X324410Y235410D02*
X327820D01*
Y237968D01*
X326968Y238821D01*
X324410D01*
D36*
X314961Y163779D02*
Y165485D01*
Y164632D01*
X320077D01*
X319224Y163779D01*
Y168043D02*
X320077Y168896D01*
Y170601D01*
X319224Y171454D01*
X315813D01*
X314961Y170601D01*
Y168896D01*
X315813Y168043D01*
X319224D01*
X314961Y173160D02*
X318372Y176571D01*
X314961Y181687D02*
Y178276D01*
X318372Y181687D01*
X319224D01*
X320077Y180834D01*
Y179129D01*
X319224Y178276D01*
Y183393D02*
X320077Y184245D01*
Y185951D01*
X319224Y186804D01*
X315813D01*
X314961Y185951D01*
Y184245D01*
X315813Y183393D01*
X319224D01*
X314961Y191920D02*
Y188509D01*
X318372Y191920D01*
X319224D01*
X320077Y191067D01*
Y189362D01*
X319224Y188509D01*
X314961Y197037D02*
Y193625D01*
X318372Y197037D01*
X319224D01*
X320077Y196184D01*
Y194478D01*
X319224Y193625D01*
X312203Y167309D02*
Y165603D01*
Y166456D01*
X307939D01*
X307087Y165603D01*
Y164750D01*
X307939Y163898D01*
X307087Y169014D02*
X310498D01*
X312203Y170720D01*
X310498Y172425D01*
X307087D01*
X309645D01*
Y169014D01*
D58*
X276574Y204199D02*
Y203084D01*
Y203641D01*
X273786D01*
X273228Y203084D01*
Y202526D01*
X273786Y201969D01*
X276574Y205314D02*
X273228D01*
Y207544D01*
X276016Y210890D02*
X276574Y210332D01*
Y209217D01*
X276016Y208659D01*
X273786D01*
X273228Y209217D01*
Y210332D01*
X273786Y210890D01*
X276574Y214235D02*
Y213120D01*
Y213677D01*
X273786D01*
X273228Y213120D01*
Y212562D01*
X273786Y212005D01*
X276574Y215350D02*
X273228D01*
Y217580D01*
X276016Y220926D02*
X276574Y220368D01*
Y219253D01*
X276016Y218695D01*
X273786D01*
X273228Y219253D01*
Y220368D01*
X273786Y220926D01*
X276574Y224271D02*
Y223156D01*
Y223713D01*
X273786D01*
X273228Y223156D01*
Y222598D01*
X273786Y222041D01*
X276574Y225386D02*
X273228D01*
Y227616D01*
X276016Y230962D02*
X276574Y230404D01*
Y229289D01*
X276016Y228732D01*
X273786D01*
X273228Y229289D01*
Y230404D01*
X273786Y230962D01*
X276574Y234307D02*
Y233192D01*
Y233750D01*
X273786D01*
X273228Y233192D01*
Y232634D01*
X273786Y232077D01*
X276574Y235422D02*
X273228D01*
Y237653D01*
X276016Y240998D02*
X276574Y240440D01*
Y239325D01*
X276016Y238768D01*
X273786D01*
X273228Y239325D01*
Y240440D01*
X273786Y240998D01*
M02*
