G04*
G04 #@! TF.GenerationSoftware,Altium Limited,CircuitStudio,1.5.2 (30)*
G04*
G04 Layer_Color=65535*
%FSLAX25Y25*%
%MOIN*%
G70*
G01*
G75*
%ADD23C,0.01181*%
%ADD24C,0.00787*%
%ADD38C,0.00984*%
%ADD39C,0.00591*%
%ADD40C,0.01000*%
%ADD41C,0.00500*%
%ADD42C,0.00630*%
%ADD43C,0.00709*%
%ADD44R,0.08400X0.03800*%
D23*
X384252Y399606D02*
Y410236D01*
X379921Y399606D02*
X384252D01*
X383465Y410236D02*
X384252D01*
X366142Y399606D02*
X370472D01*
X366142D02*
Y410236D01*
X366929D01*
D24*
X446732Y412323D02*
Y422323D01*
X396732Y412323D02*
X446732D01*
X396732Y422323D02*
X446732D01*
X396732Y412323D02*
Y422323D01*
X468386Y363898D02*
Y403898D01*
X448386Y363898D02*
Y403898D01*
Y363898D02*
X468386D01*
X448386Y403898D02*
X468386D01*
X326205Y393819D02*
X386244D01*
Y322953D02*
Y393819D01*
X326205Y322953D02*
X386244D01*
X326205D02*
Y393819D01*
X308268Y384266D02*
X320079D01*
Y383849D02*
Y384266D01*
X308268Y383849D02*
X320079D01*
X308268D02*
Y384266D01*
X408268Y390453D02*
Y392126D01*
X409941D01*
X429528Y390453D02*
Y392126D01*
X427854D02*
X429528D01*
Y370866D02*
Y372539D01*
X427854Y370866D02*
X429528D01*
X408268D02*
Y372539D01*
Y370866D02*
X409941D01*
X460532Y358366D02*
Y362302D01*
X462499D01*
X463155Y361646D01*
Y360334D01*
X462499Y359678D01*
X460532D01*
X466435Y358366D02*
Y362302D01*
X464467Y360334D01*
X467091D01*
X421358Y347638D02*
Y351180D01*
X423129D01*
X423720Y350590D01*
Y349409D01*
X423129Y348818D01*
X421358D01*
X422539D02*
X423720Y347638D01*
X427262Y351180D02*
X426081Y350590D01*
X424900Y349409D01*
Y348228D01*
X425491Y347638D01*
X426672D01*
X427262Y348228D01*
Y348818D01*
X426672Y349409D01*
X424900D01*
X307283Y416240D02*
Y419782D01*
X309054D01*
X309645Y419192D01*
Y418011D01*
X309054Y417421D01*
X307283D01*
X308464D02*
X309645Y416240D01*
X313187D02*
X310826D01*
X313187Y418602D01*
Y419192D01*
X312597Y419782D01*
X311416D01*
X310826Y419192D01*
X386221Y401082D02*
Y398130D01*
X386811Y397539D01*
X387991D01*
X388582Y398130D01*
Y401082D01*
X392124Y397539D02*
X389763D01*
X392124Y399901D01*
Y400491D01*
X391534Y401082D01*
X390353D01*
X389763Y400491D01*
X384251Y420176D02*
X383661Y420767D01*
X382480D01*
X381890Y420176D01*
Y417815D01*
X382480Y417224D01*
X383661D01*
X384251Y417815D01*
X387203Y417224D02*
Y420767D01*
X385432Y418996D01*
X387793D01*
X356495Y418109D02*
X355905Y418700D01*
X354724D01*
X354134Y418109D01*
Y415748D01*
X354724Y415158D01*
X355905D01*
X356495Y415748D01*
X357676Y415158D02*
X358857D01*
X358266D01*
Y418700D01*
X357676Y418109D01*
X348228Y404034D02*
Y401083D01*
X348819Y400492D01*
X349999D01*
X350590Y401083D01*
Y404034D01*
X351770Y400492D02*
X352951D01*
X352361D01*
Y404034D01*
X351770Y403444D01*
X319882Y360826D02*
Y357283D01*
Y358464D01*
X322243Y360826D01*
X320472Y359055D01*
X322243Y357283D01*
X323424D02*
X324605D01*
X324014D01*
Y360826D01*
X323424Y360235D01*
X321556Y381299D02*
X324508D01*
X325098Y381890D01*
Y383070D01*
X324508Y383661D01*
X321556D01*
X322147Y384841D02*
X321556Y385432D01*
Y386612D01*
X322147Y387203D01*
X322737D01*
X323327Y386612D01*
Y386022D01*
Y386612D01*
X323918Y387203D01*
X324508D01*
X325098Y386612D01*
Y385432D01*
X324508Y384841D01*
X406201Y360728D02*
Y364270D01*
X407972D01*
X408562Y363680D01*
Y362499D01*
X407972Y361909D01*
X406201D01*
X407381D02*
X408562Y360728D01*
X409743D02*
X410924D01*
X410333D01*
Y364270D01*
X409743Y363680D01*
X322145Y397735D02*
X321554Y398326D01*
X320374D01*
X319783Y397735D01*
Y395374D01*
X320374Y394783D01*
X321554D01*
X322145Y395374D01*
X323326Y397735D02*
X323916Y398326D01*
X325097D01*
X325687Y397735D01*
Y397145D01*
X325097Y396555D01*
X324506D01*
X325097D01*
X325687Y395964D01*
Y395374D01*
X325097Y394783D01*
X323916D01*
X323326Y395374D01*
X313287Y368011D02*
X312696Y368601D01*
X311515D01*
X310925Y368011D01*
Y365649D01*
X311515Y365059D01*
X312696D01*
X313287Y365649D01*
X316829Y365059D02*
X314467D01*
X316829Y367421D01*
Y368011D01*
X316238Y368601D01*
X315058D01*
X314467Y368011D01*
X454724Y350688D02*
X454133Y351278D01*
X452953D01*
X452362Y350688D01*
Y350098D01*
X452953Y349507D01*
X454133D01*
X454724Y348917D01*
Y348327D01*
X454133Y347736D01*
X452953D01*
X452362Y348327D01*
X455904Y351278D02*
Y347736D01*
X457085Y348917D01*
X458266Y347736D01*
Y351278D01*
X459446Y347736D02*
X460627D01*
X460037D01*
Y351278D01*
X459446Y350688D01*
X400984Y395865D02*
Y392913D01*
X401575Y392323D01*
X402755D01*
X403346Y392913D01*
Y395865D01*
X406297Y392323D02*
Y395865D01*
X404526Y394094D01*
X406888D01*
X421260Y352658D02*
Y356200D01*
X423031D01*
X423621Y355609D01*
Y354429D01*
X423031Y353838D01*
X421260D01*
X422440D02*
X423621Y352658D01*
X426573D02*
Y356200D01*
X424802Y354429D01*
X427163D01*
X401180Y380905D02*
X400590Y381495D01*
X399409D01*
X398819Y380905D01*
Y378543D01*
X399409Y377953D01*
X400590D01*
X401180Y378543D01*
X402361Y381495D02*
X404722D01*
Y380905D01*
X402361Y378543D01*
Y377953D01*
X390550Y380806D02*
X389960Y381397D01*
X388779D01*
X388189Y380806D01*
Y378445D01*
X388779Y377854D01*
X389960D01*
X390550Y378445D01*
X394093Y381397D02*
X392912Y380806D01*
X391731Y379625D01*
Y378445D01*
X392321Y377854D01*
X393502D01*
X394093Y378445D01*
Y379035D01*
X393502Y379625D01*
X391731D01*
X433956Y395275D02*
X433366Y395865D01*
X432185D01*
X431595Y395275D01*
Y392913D01*
X432185Y392323D01*
X433366D01*
X433956Y392913D01*
X437498Y395865D02*
X435137D01*
Y394094D01*
X436317Y394684D01*
X436908D01*
X437498Y394094D01*
Y392913D01*
X436908Y392323D01*
X435727D01*
X435137Y392913D01*
D38*
X310925Y374297D02*
G03*
X310925Y374297I-492J0D01*
G01*
X409350Y368307D02*
G03*
X409350Y368307I-492J0D01*
G01*
D39*
X303543Y351969D02*
Y383465D01*
X244488Y351969D02*
Y383465D01*
Y351969D02*
X303543D01*
X244488Y383465D02*
X303543D01*
X244488Y415748D02*
X303543D01*
X244488Y384252D02*
X303543D01*
X244488D02*
Y415748D01*
X303543Y384252D02*
Y415748D01*
D40*
X249606Y392618D02*
Y415453D01*
Y392618D02*
X298425D01*
Y415453D01*
X249606D02*
X298425D01*
X431201Y347378D02*
Y360764D01*
Y347378D02*
X450098D01*
Y360764D01*
X431201D02*
X450098D01*
D41*
X409609Y351906D02*
X419709D01*
X409609Y347306D02*
X419709D01*
Y351906D01*
X409609Y347306D02*
Y351906D01*
X313324Y404798D02*
Y414898D01*
X308724Y404798D02*
Y414898D01*
Y404798D02*
X313324D01*
X308724Y414898D02*
X313324D01*
X386283Y404393D02*
Y414493D01*
X390883Y404393D02*
Y414493D01*
X386283D02*
X390883D01*
X386283Y404393D02*
X390883D01*
X359117Y402424D02*
Y412524D01*
X363717Y402424D02*
Y412524D01*
X359117D02*
X363717D01*
X359117Y402424D02*
X363717D01*
X347126Y399862D02*
Y419862D01*
X315126D02*
X347126D01*
X315126Y399862D02*
Y419862D01*
Y399862D02*
X347126D01*
X412070Y363422D02*
X422170D01*
X412070Y358822D02*
X422170D01*
Y363422D01*
X412070Y358822D02*
Y363422D01*
X308735Y392387D02*
X318835D01*
X308735Y396987D02*
X318835D01*
X308735Y392387D02*
Y396987D01*
X318835Y392387D02*
Y396987D01*
X310692Y374741D02*
X320792D01*
X310692Y370141D02*
X320792D01*
Y374741D01*
X310692Y370141D02*
Y374741D01*
X409511Y357320D02*
X419611D01*
X409511Y352720D02*
X419611D01*
Y357320D01*
X409511Y352720D02*
Y357320D01*
X397306Y366598D02*
Y376698D01*
X401906Y366598D02*
Y376698D01*
X397306D02*
X401906D01*
X397306Y366598D02*
X401906D01*
X391401D02*
Y376698D01*
X396001Y366598D02*
Y376698D01*
X391401D02*
X396001D01*
X391401Y366598D02*
X396001D01*
X423783Y401611D02*
X433883D01*
X423783Y397011D02*
X433883D01*
Y401611D01*
X423783Y397011D02*
Y401611D01*
D42*
X339730Y365452D02*
X338615D01*
X339173D01*
Y362664D01*
X338615Y362106D01*
X338058D01*
X337500Y362664D01*
X340845Y365452D02*
Y362106D01*
X343076D01*
X346421Y364894D02*
X345864Y365452D01*
X344748D01*
X344191Y364894D01*
Y362664D01*
X344748Y362106D01*
X345864D01*
X346421Y362664D01*
X349766Y365452D02*
X348651D01*
X349209D01*
Y362664D01*
X348651Y362106D01*
X348094D01*
X347536Y362664D01*
X350882Y365452D02*
Y362106D01*
X353112D01*
X356457Y364894D02*
X355900Y365452D01*
X354784D01*
X354227Y364894D01*
Y362664D01*
X354784Y362106D01*
X355900D01*
X356457Y362664D01*
X359803Y365452D02*
X358687D01*
X359245D01*
Y362664D01*
X358687Y362106D01*
X358130D01*
X357572Y362664D01*
X360918Y365452D02*
Y362106D01*
X363148D01*
X366493Y364894D02*
X365936Y365452D01*
X364821D01*
X364263Y364894D01*
Y362664D01*
X364821Y362106D01*
X365936D01*
X366493Y362664D01*
X369839Y365452D02*
X368724D01*
X369281D01*
Y362664D01*
X368724Y362106D01*
X368166D01*
X367608Y362664D01*
X370954Y365452D02*
Y362106D01*
X373184D01*
X376529Y364894D02*
X375972Y365452D01*
X374857D01*
X374299Y364894D01*
Y362664D01*
X374857Y362106D01*
X375972D01*
X376529Y362664D01*
D43*
X283268Y392126D02*
Y390027D01*
X282218Y388977D01*
X281169Y390027D01*
Y392126D01*
Y390552D01*
X283268D01*
X280119Y388977D02*
Y392126D01*
X278545D01*
X278020Y391601D01*
Y389502D01*
X278545Y388977D01*
X280119D01*
X274871Y389502D02*
X275396Y388977D01*
X276446D01*
X276971Y389502D01*
Y391601D01*
X276446Y392126D01*
X275396D01*
X274871Y391601D01*
X281267Y384975D02*
X281792Y384450D01*
X282841D01*
X283366Y384975D01*
Y385499D01*
X282841Y386024D01*
X281792D01*
X281267Y386549D01*
Y387074D01*
X281792Y387598D01*
X282841D01*
X283366Y387074D01*
X278118Y384975D02*
X278643Y384450D01*
X279693D01*
X280218Y384975D01*
Y387074D01*
X279693Y387598D01*
X278643D01*
X278118Y387074D01*
X277069Y384450D02*
Y387598D01*
X274970D01*
X269358Y388912D02*
X269882Y388387D01*
X270932D01*
X271457Y388912D01*
Y389436D01*
X270932Y389961D01*
X269882D01*
X269358Y390486D01*
Y391011D01*
X269882Y391535D01*
X270932D01*
X271457Y391011D01*
X268308Y388387D02*
Y391535D01*
X266734D01*
X266209Y391011D01*
Y388912D01*
X266734Y388387D01*
X268308D01*
X265160Y391535D02*
Y389436D01*
X264110Y388387D01*
X263060Y389436D01*
Y391535D01*
Y389961D01*
X265160D01*
X295177Y388715D02*
X294652Y388190D01*
X293603D01*
X293078Y388715D01*
Y389240D01*
X293603Y389764D01*
X294128D01*
X293603D01*
X293078Y390289D01*
Y390814D01*
X293603Y391339D01*
X294652D01*
X295177Y390814D01*
X292029Y389240D02*
X290979Y391339D01*
X289930Y389240D01*
X288880Y388715D02*
X288355Y388190D01*
X287306D01*
X286781Y388715D01*
Y389240D01*
X287306Y389764D01*
X287830D01*
X287306D01*
X286781Y390289D01*
Y390814D01*
X287306Y391339D01*
X288355D01*
X288880Y390814D01*
X257251Y388813D02*
X257776Y388288D01*
X258826D01*
X259350Y388813D01*
Y390912D01*
X258826Y391437D01*
X257776D01*
X257251Y390912D01*
Y389863D01*
X258301D01*
X256202Y391437D02*
Y388288D01*
X254103Y391437D01*
Y388288D01*
X253053D02*
Y391437D01*
X251479D01*
X250954Y390912D01*
Y388813D01*
X251479Y388288D01*
X253053D01*
X431398Y362500D02*
Y365649D01*
X432972D01*
X433497Y365124D01*
Y364074D01*
X432972Y363549D01*
X431398D01*
X432447D02*
X433497Y362500D01*
X436645Y365649D02*
X434546D01*
Y362500D01*
X436645D01*
X434546Y364074D02*
X435596D01*
X439794Y365124D02*
X439269Y365649D01*
X438220D01*
X437695Y365124D01*
Y364599D01*
X438220Y364074D01*
X439269D01*
X439794Y363549D01*
Y363025D01*
X439269Y362500D01*
X438220D01*
X437695Y363025D01*
X442942Y365649D02*
X440843D01*
Y362500D01*
X442942D01*
X440843Y364074D02*
X441893D01*
X443992Y365649D02*
X446091D01*
X445042D01*
Y362500D01*
X242716Y364272D02*
X239567D01*
X241141D01*
Y362173D01*
X242716D01*
X239567D01*
X242716Y359024D02*
Y361123D01*
X239567D01*
Y359024D01*
X241141Y361123D02*
Y360073D01*
X239567Y357975D02*
X241666D01*
X242716Y356925D01*
X241666Y355875D01*
X239567D01*
X241141D01*
Y357975D01*
X242716Y354826D02*
Y352727D01*
Y353776D01*
X239567D01*
X242716Y349578D02*
Y351677D01*
X239567D01*
Y349578D01*
X241141Y351677D02*
Y350628D01*
X239567Y348529D02*
X242716D01*
Y346954D01*
X242191Y346430D01*
X241141D01*
X240616Y346954D01*
Y348529D01*
Y347479D02*
X239567Y346430D01*
X242716Y422835D02*
Y420736D01*
Y421785D01*
X239567D01*
X242716Y417587D02*
Y419686D01*
X239567D01*
Y417587D01*
X241141Y419686D02*
Y418637D01*
X239567Y416538D02*
X242716D01*
X241666Y415488D01*
X242716Y414438D01*
X239567D01*
Y413389D02*
X242716D01*
Y411815D01*
X242191Y411290D01*
X241141D01*
X240616Y411815D01*
Y413389D01*
X239567Y410240D02*
X240092D01*
Y409716D01*
X239567D01*
Y410240D01*
X242191Y405517D02*
X242716Y406042D01*
Y407092D01*
X242191Y407617D01*
X241666D01*
X241141Y407092D01*
Y406042D01*
X240616Y405517D01*
X240092D01*
X239567Y406042D01*
Y407092D01*
X240092Y407617D01*
X242716Y402369D02*
Y404468D01*
X239567D01*
Y402369D01*
X241141Y404468D02*
Y403418D01*
X239567Y401319D02*
X242716D01*
X239567Y399220D01*
X242716D01*
X239567Y398171D02*
X240092D01*
Y397646D01*
X239567D01*
Y398171D01*
X268406Y421062D02*
Y417913D01*
X269980D01*
X270505Y418438D01*
Y420537D01*
X269980Y421062D01*
X268406D01*
X271554Y417913D02*
Y420012D01*
X272604Y421062D01*
X273653Y420012D01*
Y417913D01*
Y419488D01*
X271554D01*
X274703Y421062D02*
X276802D01*
X275752D01*
Y417913D01*
X277851D02*
Y420012D01*
X278901Y421062D01*
X279950Y420012D01*
Y417913D01*
Y419488D01*
X277851D01*
X290650Y420537D02*
X291174Y421062D01*
X292224D01*
X292749Y420537D01*
Y420012D01*
X292224Y419488D01*
X291699D01*
X292224D01*
X292749Y418963D01*
Y418438D01*
X292224Y417913D01*
X291174D01*
X290650Y418438D01*
X293798Y420012D02*
X294848Y417913D01*
X295897Y420012D01*
X296947Y420537D02*
X297471Y421062D01*
X298521D01*
X299046Y420537D01*
Y420012D01*
X298521Y419488D01*
X297996D01*
X298521D01*
X299046Y418963D01*
Y418438D01*
X298521Y417913D01*
X297471D01*
X296947Y418438D01*
X251902Y420439D02*
X251377Y420964D01*
X250328D01*
X249803Y420439D01*
Y418340D01*
X250328Y417815D01*
X251377D01*
X251902Y418340D01*
Y419389D01*
X250853D01*
X252952Y417815D02*
Y420964D01*
X255051Y417815D01*
Y420964D01*
X256100D02*
Y417815D01*
X257675D01*
X258199Y418340D01*
Y420439D01*
X257675Y420964D01*
X256100D01*
X287827Y349573D02*
X287303Y350097D01*
X286253D01*
X285728Y349573D01*
Y349048D01*
X286253Y348523D01*
X287303D01*
X287827Y347998D01*
Y347474D01*
X287303Y346949D01*
X286253D01*
X285728Y347474D01*
X290976Y350097D02*
X288877D01*
Y346949D01*
X290976D01*
X288877Y348523D02*
X289927D01*
X292025Y346949D02*
Y350097D01*
X294125Y346949D01*
Y350097D01*
X297273Y349573D02*
X296748Y350097D01*
X295699D01*
X295174Y349573D01*
Y349048D01*
X295699Y348523D01*
X296748D01*
X297273Y347998D01*
Y347474D01*
X296748Y346949D01*
X295699D01*
X295174Y347474D01*
X299897Y350097D02*
X298848D01*
X298323Y349573D01*
Y347474D01*
X298848Y346949D01*
X299897D01*
X300422Y347474D01*
Y349573D01*
X299897Y350097D01*
X301471Y346949D02*
Y350097D01*
X303046D01*
X303570Y349573D01*
Y348523D01*
X303046Y347998D01*
X301471D01*
X302521D02*
X303570Y346949D01*
X251804Y348982D02*
X251279Y349507D01*
X250230D01*
X249705Y348982D01*
Y346883D01*
X250230Y346358D01*
X251279D01*
X251804Y346883D01*
Y347933D01*
X250754D01*
X252853Y346358D02*
Y349507D01*
X254952Y346358D01*
Y349507D01*
X256002D02*
Y346358D01*
X257576D01*
X258101Y346883D01*
Y348982D01*
X257576Y349507D01*
X256002D01*
X272375Y346949D02*
X270276D01*
X272375Y349048D01*
Y349573D01*
X271850Y350097D01*
X270800D01*
X270276Y349573D01*
X274998Y346949D02*
Y350097D01*
X273424Y348523D01*
X275523D01*
X276573Y350097D02*
Y347998D01*
X277622Y346949D01*
X278672Y347998D01*
Y350097D01*
X452165Y409546D02*
Y406398D01*
X454264D01*
X456888Y409546D02*
X455839D01*
X455314Y409022D01*
Y406922D01*
X455839Y406398D01*
X456888D01*
X457413Y406922D01*
Y409022D01*
X456888Y409546D01*
X460562Y409022D02*
X460037Y409546D01*
X458987D01*
X458462Y409022D01*
Y406922D01*
X458987Y406398D01*
X460037D01*
X460562Y406922D01*
Y407972D01*
X459512D01*
X464760Y409022D02*
X465284Y409546D01*
X466334D01*
X466859Y409022D01*
Y406922D01*
X466334Y406398D01*
X465284D01*
X464760Y406922D01*
Y409022D01*
X457677Y411286D02*
X459776D01*
X457677Y412335D02*
X459776D01*
X453871Y417191D02*
X453346Y417716D01*
X452296D01*
X451772Y417191D01*
Y416666D01*
X452296Y416141D01*
X453346D01*
X453871Y415617D01*
Y415092D01*
X453346Y414567D01*
X452296D01*
X451772Y415092D01*
X454920Y417716D02*
Y414567D01*
Y416141D01*
X457019D01*
Y417716D01*
Y414567D01*
X459643Y417716D02*
X458594D01*
X458069Y417191D01*
Y415092D01*
X458594Y414567D01*
X459643D01*
X460168Y415092D01*
Y417191D01*
X459643Y417716D01*
X461217Y414567D02*
Y417716D01*
X462792D01*
X463316Y417191D01*
Y416141D01*
X462792Y415617D01*
X461217D01*
X462267D02*
X463316Y414567D01*
X464366Y417716D02*
X466465D01*
X465415D01*
Y414567D01*
X471293Y367421D02*
X470769Y367946D01*
Y368996D01*
X471293Y369520D01*
X471818D01*
X472343Y368996D01*
X472868Y369520D01*
X473392D01*
X473917Y368996D01*
Y367946D01*
X473392Y367421D01*
X472868D01*
X472343Y367946D01*
X471818Y367421D01*
X471293D01*
X472343Y367946D02*
Y368996D01*
X473721Y379822D02*
X470572D01*
X472146Y378248D01*
Y380347D01*
X473425Y390091D02*
Y387992D01*
X471326Y390091D01*
X470801D01*
X470277Y389566D01*
Y388517D01*
X470801Y387992D01*
X474114Y398622D02*
Y399672D01*
Y399147D01*
X470966D01*
X471490Y398622D01*
X440585Y402559D02*
X440060Y403084D01*
Y404133D01*
X440585Y404658D01*
X441110D01*
X441634Y404133D01*
Y403609D01*
Y404133D01*
X442159Y404658D01*
X442684D01*
X443209Y404133D01*
Y403084D01*
X442684Y402559D01*
X441110Y405708D02*
X443209Y406757D01*
X441110Y407807D01*
X440585Y408856D02*
X440060Y409381D01*
Y410430D01*
X440585Y410955D01*
X441110D01*
X441634Y410430D01*
Y409906D01*
Y410430D01*
X442159Y410955D01*
X442684D01*
X443209Y410430D01*
Y409381D01*
X442684Y408856D01*
X430545Y404756D02*
X430021Y404232D01*
Y403182D01*
X430545Y402658D01*
X432645D01*
X433169Y403182D01*
Y404232D01*
X432645Y404756D01*
X430021Y405806D02*
X433169D01*
Y407905D01*
X430021Y408955D02*
X433169D01*
X432120D01*
X430021Y411054D01*
X431595Y409479D01*
X433169Y411054D01*
X420506Y404461D02*
X419981Y403936D01*
Y402887D01*
X420506Y402362D01*
X422605D01*
X423130Y402887D01*
Y403936D01*
X422605Y404461D01*
X421556D01*
Y403412D01*
X423130Y405511D02*
X419981D01*
X423130Y407610D01*
X419981D01*
Y408659D02*
X423130D01*
Y410234D01*
X422605Y410758D01*
X420506D01*
X419981Y410234D01*
Y408659D01*
X410040Y402756D02*
X413189D01*
Y404330D01*
X412664Y404855D01*
X410565D01*
X410040Y404330D01*
Y402756D01*
Y405904D02*
Y406954D01*
Y406429D01*
X413189D01*
Y405904D01*
Y406954D01*
X410040Y410103D02*
Y409053D01*
X410565Y408528D01*
X412664D01*
X413189Y409053D01*
Y410103D01*
X412664Y410627D01*
X410565D01*
X410040Y410103D01*
X402953Y403051D02*
X399804D01*
Y404626D01*
X400329Y405150D01*
X401378D01*
X401903Y404626D01*
Y403051D01*
Y404101D02*
X402953Y405150D01*
X400329Y408299D02*
X399804Y407774D01*
Y406725D01*
X400329Y406200D01*
X400854D01*
X401378Y406725D01*
Y407774D01*
X401903Y408299D01*
X402428D01*
X402953Y407774D01*
Y406725D01*
X402428Y406200D01*
X399804Y409348D02*
Y411447D01*
Y410398D01*
X402953D01*
D44*
X331126Y401762D02*
D03*
M02*
