G04*
G04 #@! TF.GenerationSoftware,Altium Limited,CircuitStudio,1.5.2 (30)*
G04*
G04 Layer_Color=16711935*
%FSLAX25Y25*%
%MOIN*%
G70*
G01*
G75*
%ADD45R,0.03591X0.03591*%
%ADD46R,0.03591X0.03591*%
%ADD56C,0.07677*%
%ADD57C,0.06591*%
%ADD58C,0.06496*%
%ADD59R,0.06496X0.06496*%
%ADD60R,0.06496X0.06496*%
%ADD61C,0.07091*%
%ADD62C,0.00591*%
%ADD63C,0.02953*%
%ADD64C,0.03000*%
%ADD65R,0.01591X0.01591*%
%ADD66R,0.05591X0.04191*%
%ADD67R,0.04191X0.04191*%
D45*
X269291Y413091D02*
D03*
X274791D02*
D03*
X281201D02*
D03*
X286701D02*
D03*
X287402Y374016D02*
D03*
X281902D02*
D03*
X286811Y399508D02*
D03*
X281311D02*
D03*
D46*
X256890Y377165D02*
D03*
Y382665D02*
D03*
X275984Y380315D02*
D03*
Y385815D02*
D03*
X269291Y357874D02*
D03*
Y352374D02*
D03*
D56*
X293701Y367717D02*
D03*
X254331D02*
D03*
X274016D02*
D03*
Y400000D02*
D03*
X254331D02*
D03*
X293701D02*
D03*
D57*
X269094Y406004D02*
D03*
X278937D02*
D03*
X288779D02*
D03*
X259252D02*
D03*
X343803Y388858D02*
D03*
X348803Y378858D02*
D03*
X353803Y388858D02*
D03*
X358803Y378858D02*
D03*
X363803Y388858D02*
D03*
X368803Y378858D02*
D03*
X338803D02*
D03*
X373803Y388858D02*
D03*
D58*
X401732Y417323D02*
D03*
X411732D02*
D03*
X421732D02*
D03*
X431732D02*
D03*
X453386Y398898D02*
D03*
X463386D02*
D03*
X453386Y388898D02*
D03*
X463386D02*
D03*
X453386Y378898D02*
D03*
X463386D02*
D03*
X453386Y368898D02*
D03*
D59*
X441732Y417323D02*
D03*
D60*
X463386Y368898D02*
D03*
D61*
X394606Y352362D02*
D03*
X404606D02*
D03*
X307992D02*
D03*
X317992D02*
D03*
D62*
X333795Y353858D02*
D03*
X378803D02*
D03*
X230315Y356299D02*
D03*
Y411417D02*
D03*
X482283Y356299D02*
D03*
Y411417D02*
D03*
D63*
X414567Y377165D02*
D03*
Y381496D02*
D03*
Y385827D02*
D03*
X418898Y377165D02*
D03*
Y381496D02*
D03*
Y385827D02*
D03*
X423228Y377165D02*
D03*
Y381496D02*
D03*
Y385827D02*
D03*
D64*
X265349Y382677D02*
G03*
X265349Y382677I-1319J0D01*
G01*
X265340Y391142D02*
G03*
X265340Y391142I-1319J0D01*
G01*
D65*
X265544Y382672D02*
D03*
X262544D02*
D03*
X262507Y391147D02*
D03*
X265507D02*
D03*
D66*
X289697Y383690D02*
D03*
X254598Y354861D02*
D03*
D67*
X281697Y379890D02*
D03*
X281697Y387390D02*
D03*
X262598Y358661D02*
D03*
X262598Y351161D02*
D03*
M02*
