G04*
G04 #@! TF.GenerationSoftware,Altium Limited,CircuitStudio,1.5.2 (30)*
G04*
G04 Layer_Color=8388736*
%FSLAX25Y25*%
%MOIN*%
G70*
G01*
G75*
G04:AMPARAMS|DCode=17|XSize=55.4mil|YSize=22.67mil|CornerRadius=11.34mil|HoleSize=0mil|Usage=FLASHONLY|Rotation=90.000|XOffset=0mil|YOffset=0mil|HoleType=Round|Shape=RoundedRectangle|*
%AMROUNDEDRECTD17*
21,1,0.05540,0.00000,0,0,90.0*
21,1,0.03273,0.02267,0,0,90.0*
1,1,0.02267,0.00000,0.01636*
1,1,0.02267,0.00000,-0.01636*
1,1,0.02267,0.00000,-0.01636*
1,1,0.02267,0.00000,0.01636*
%
%ADD17ROUNDEDRECTD17*%
%ADD18R,0.02267X0.05540*%
%ADD45R,0.03591X0.03591*%
%ADD46R,0.03591X0.03591*%
%ADD47R,0.02756X0.05709*%
%ADD48R,0.03740X0.06398*%
%ADD49R,0.07874X0.12894*%
%ADD50O,0.08591X0.02991*%
%ADD51R,0.08591X0.02991*%
%ADD52R,0.04724X0.03150*%
%ADD53O,0.01575X0.04134*%
%ADD54O,0.04134X0.01575*%
%ADD55R,0.14764X0.14764*%
%ADD56C,0.07677*%
%ADD57C,0.06591*%
%ADD58C,0.06496*%
%ADD59R,0.06496X0.06496*%
%ADD60R,0.06496X0.06496*%
%ADD61C,0.07091*%
%ADD62C,0.00591*%
%ADD63C,0.02953*%
D17*
X310433Y388587D02*
D03*
X317913D02*
D03*
Y379528D02*
D03*
X314173D02*
D03*
D18*
X310433D02*
D03*
D45*
X411909Y349606D02*
D03*
X417409D02*
D03*
X414370Y361122D02*
D03*
X419870D02*
D03*
X316535Y394687D02*
D03*
X311035D02*
D03*
X312992Y372441D02*
D03*
X318492D02*
D03*
X411811Y355020D02*
D03*
X417311D02*
D03*
X426083Y399311D02*
D03*
X431583D02*
D03*
D46*
X311024Y412598D02*
D03*
Y407098D02*
D03*
X388583Y406693D02*
D03*
Y412193D02*
D03*
X361417Y404724D02*
D03*
Y410224D02*
D03*
X399606Y368898D02*
D03*
Y374398D02*
D03*
X393701Y368898D02*
D03*
Y374398D02*
D03*
D47*
X381102Y412598D02*
D03*
X369291D02*
D03*
D48*
X375197Y412254D02*
D03*
D49*
Y403150D02*
D03*
D50*
X320126Y417362D02*
D03*
X342126D02*
D03*
X320126Y407362D02*
D03*
Y402362D02*
D03*
X342126Y407362D02*
D03*
Y412362D02*
D03*
X320126D02*
D03*
D51*
X342126Y402362D02*
D03*
D52*
X432480Y349839D02*
D03*
X448819D02*
D03*
Y358303D02*
D03*
X432480D02*
D03*
D53*
X412008Y371457D02*
D03*
X413976D02*
D03*
X415945D02*
D03*
X417913D02*
D03*
X419882D02*
D03*
X421850D02*
D03*
X423819D02*
D03*
X425787D02*
D03*
Y391535D02*
D03*
X423819D02*
D03*
X421850D02*
D03*
X419882D02*
D03*
X417913D02*
D03*
X415945D02*
D03*
X413976D02*
D03*
X412008D02*
D03*
D54*
X428937Y374606D02*
D03*
Y376575D02*
D03*
Y378543D02*
D03*
Y380512D02*
D03*
Y382480D02*
D03*
Y384449D02*
D03*
Y386417D02*
D03*
Y388386D02*
D03*
X408858D02*
D03*
Y386417D02*
D03*
Y384449D02*
D03*
Y382480D02*
D03*
Y380512D02*
D03*
Y378543D02*
D03*
Y376575D02*
D03*
Y374606D02*
D03*
D55*
X418898Y381496D02*
D03*
D56*
X293701Y367717D02*
D03*
X254331D02*
D03*
X274016D02*
D03*
Y400000D02*
D03*
X254331D02*
D03*
X293701D02*
D03*
D57*
X269094Y406004D02*
D03*
X278937D02*
D03*
X288779D02*
D03*
X259252D02*
D03*
X343803Y388858D02*
D03*
X348803Y378858D02*
D03*
X353803Y388858D02*
D03*
X358803Y378858D02*
D03*
X363803Y388858D02*
D03*
X368803Y378858D02*
D03*
X338803D02*
D03*
X373803Y388858D02*
D03*
D58*
X401732Y417323D02*
D03*
X411732D02*
D03*
X421732D02*
D03*
X431732D02*
D03*
X453386Y398898D02*
D03*
X463386D02*
D03*
X453386Y388898D02*
D03*
X463386D02*
D03*
X453386Y378898D02*
D03*
X463386D02*
D03*
X453386Y368898D02*
D03*
D59*
X441732Y417323D02*
D03*
D60*
X463386Y368898D02*
D03*
D61*
X394606Y352362D02*
D03*
X404606D02*
D03*
X307992D02*
D03*
X317992D02*
D03*
D62*
X333795Y353858D02*
D03*
X378803D02*
D03*
X230315Y356299D02*
D03*
Y411417D02*
D03*
X482283Y356299D02*
D03*
Y411417D02*
D03*
D63*
X414567Y377165D02*
D03*
Y381496D02*
D03*
Y385827D02*
D03*
X418898Y377165D02*
D03*
Y381496D02*
D03*
Y385827D02*
D03*
X423228Y377165D02*
D03*
Y381496D02*
D03*
Y385827D02*
D03*
M02*
