G04*
G04 #@! TF.GenerationSoftware,Altium Limited,CircuitStudio,1.5.2 (30)*
G04*
G04 Layer_Color=8421504*
%FSLAX25Y25*%
%MOIN*%
G70*
G01*
G75*
%ADD10R,0.03000X0.03000*%
%ADD11R,0.03000X0.03000*%
%ADD12R,0.02165X0.05118*%
%ADD13R,0.03150X0.05807*%
%ADD14R,0.07284X0.12303*%
%ADD15O,0.08000X0.02400*%
%ADD16R,0.08000X0.02400*%
G04:AMPARAMS|DCode=17|XSize=55.4mil|YSize=22.67mil|CornerRadius=11.34mil|HoleSize=0mil|Usage=FLASHONLY|Rotation=90.000|XOffset=0mil|YOffset=0mil|HoleType=Round|Shape=RoundedRectangle|*
%AMROUNDEDRECTD17*
21,1,0.05540,0.00000,0,0,90.0*
21,1,0.03273,0.02267,0,0,90.0*
1,1,0.02267,0.00000,0.01636*
1,1,0.02267,0.00000,-0.01636*
1,1,0.02267,0.00000,-0.01636*
1,1,0.02267,0.00000,0.01636*
%
%ADD17ROUNDEDRECTD17*%
%ADD18R,0.02267X0.05540*%
%ADD19R,0.04134X0.02559*%
%ADD20O,0.00984X0.03543*%
%ADD21O,0.03543X0.00984*%
%ADD22R,0.14173X0.14173*%
D10*
X411909Y349606D02*
D03*
X417409D02*
D03*
X414370Y361122D02*
D03*
X419870D02*
D03*
X316535Y394687D02*
D03*
X311035D02*
D03*
X312992Y372441D02*
D03*
X318492D02*
D03*
X411811Y355020D02*
D03*
X417311D02*
D03*
X426083Y399311D02*
D03*
X431583D02*
D03*
D11*
X311024Y412598D02*
D03*
Y407098D02*
D03*
X388583Y406693D02*
D03*
Y412193D02*
D03*
X361417Y404724D02*
D03*
Y410224D02*
D03*
X399606Y368898D02*
D03*
Y374398D02*
D03*
X393701Y368898D02*
D03*
Y374398D02*
D03*
D12*
X381102Y412598D02*
D03*
X369291D02*
D03*
D13*
X375197Y412254D02*
D03*
D14*
Y403150D02*
D03*
D15*
X320126Y417362D02*
D03*
X342126D02*
D03*
X320126Y407362D02*
D03*
Y402362D02*
D03*
X342126Y407362D02*
D03*
Y412362D02*
D03*
X320126D02*
D03*
D16*
X342126Y402362D02*
D03*
D17*
X310433Y388587D02*
D03*
X317913D02*
D03*
Y379528D02*
D03*
X314173D02*
D03*
D18*
X310433D02*
D03*
D19*
X432480Y349839D02*
D03*
X448819D02*
D03*
Y358303D02*
D03*
X432480D02*
D03*
D20*
X412008Y371457D02*
D03*
X413976D02*
D03*
X415945D02*
D03*
X417913D02*
D03*
X419882D02*
D03*
X421850D02*
D03*
X423819D02*
D03*
X425787D02*
D03*
Y391535D02*
D03*
X423819D02*
D03*
X421850D02*
D03*
X419882D02*
D03*
X417913D02*
D03*
X415945D02*
D03*
X413976D02*
D03*
X412008D02*
D03*
D21*
X428937Y374606D02*
D03*
Y376575D02*
D03*
Y378543D02*
D03*
Y380512D02*
D03*
Y382480D02*
D03*
Y384449D02*
D03*
Y386417D02*
D03*
Y388386D02*
D03*
X408858D02*
D03*
Y386417D02*
D03*
Y384449D02*
D03*
Y382480D02*
D03*
Y380512D02*
D03*
Y378543D02*
D03*
Y376575D02*
D03*
Y374606D02*
D03*
D22*
X418898Y381496D02*
D03*
M02*
