M48
;Layer_Color=9474304
;FILE_FORMAT=2:5
INCH,LZ
;TYPE=PLATED
T1F00S00C0.01181
T2F00S00C0.03150
T3F00S00C0.03543
T4F00S00C0.04000
T5F00S00C0.04331
;TYPE=NON_PLATED
T6F00S00C0.12598
T7F00S00C0.12795
%
T01
X0263976Y0371752
X0272933Y0374508
X0271161Y037874
X0301575Y0378839
X0304724Y0380413
X0302264Y0373721
X029813Y0374016
X0304921Y0391437
X026437Y0410138
X032874Y0412205
Y040748
X0331299Y0389173
X0353642Y0383366
X0351575Y0374508
X0350682Y03688
X0355807Y0370768
X0357776Y0368307
X0381201Y0366043
X0388976Y0368898
X0393307Y0362402
X0403839Y0363976
X0414567Y0364764
X0422441Y0365059
X0423228Y0377165
X0418898
X0414567
Y0381496
Y0385827
X0418898
Y0381496
X0423228
Y0385827
X0433366Y0387992
X0434154Y0384055
X0432579Y0368996
X0437205Y0358366
X0456595Y0359055
X0443898Y0399213
X0449213Y0419882
X0413386Y0397638
X040935Y0397244
X0397244Y0405118
X0397047Y0388878
X0391831Y03875
X0381102Y0383268
X0383957Y0398721
X0364567Y0399213
X0353937Y0397244
X0349902Y0408071
X0361417Y0416535
X0371752Y041811
X0392717Y0417618
X031309Y0347736
T02
X0338803Y0378858
X0348803
X0358803
X0368803
X0363803Y0388858
X0353803
X0343803
X0373803
T03
X0259252Y0406004
X0269094
X0278937
X0288779
X0401732Y0417323
X0411732
X0421732
X0431732
X0441732
X0453386Y0398898
X0463386
Y0388898
X0453386
Y0378898
X0463386
Y0368898
X0453386
T04
X0307992Y0352362
X0317992
X0394606
X0404606
T05
X0254331Y0367717
X0274016
X0293701
Y04
X0274016
X0254331
T06
X0230315Y0356299
Y0411417
X0482283
Y0356299
T07
X0333795Y0353858
X0378803
M30
