G04*
G04 #@! TF.GenerationSoftware,Altium Limited,CircuitStudio,1.5.2 (1.5.2.30)*
G04*
G04 Layer_Color=65535*
%FSLAX25Y25*%
%MOIN*%
G70*
G01*
G75*
%ADD21C,0.00984*%
%ADD22C,0.00787*%
%ADD23C,0.00630*%
%ADD24C,0.01000*%
%ADD25C,0.00709*%
%ADD26C,0.01181*%
D21*
X387020Y225197D02*
G03*
X387020Y225197I-492J0D01*
G01*
D22*
X418595Y180728D02*
Y190728D01*
X338595Y180728D02*
X418595D01*
X338595D02*
Y190728D01*
X418595D01*
X291772Y151429D02*
X351811D01*
Y80563D02*
Y151429D01*
X291772Y80563D02*
X351811D01*
X291772D02*
Y151429D01*
X229815D02*
X289854D01*
Y80563D02*
Y151429D01*
X229815Y80563D02*
X289854D01*
X229815D02*
Y151429D01*
X167358D02*
X227398D01*
Y80563D02*
Y151429D01*
X167358Y80563D02*
X227398D01*
X167358D02*
Y151429D01*
X104902D02*
X164941D01*
Y80563D02*
Y151429D01*
X104902Y80563D02*
X164941D01*
X104902D02*
Y151429D01*
X354343Y225610D02*
Y235610D01*
X404343D01*
X354343Y225610D02*
X404343D01*
Y235610D01*
X369185Y213484D02*
X388870D01*
X369185Y205217D02*
Y213484D01*
Y205217D02*
X388870D01*
Y213484D01*
X353728Y151429D02*
X413768D01*
Y80563D02*
Y151429D01*
X353728Y80563D02*
X413768D01*
X353728D02*
Y151429D01*
D23*
X176533Y128444D02*
X175418D01*
X175976D01*
Y125656D01*
X175418Y125098D01*
X174861D01*
X174303Y125656D01*
X177648Y128444D02*
Y125098D01*
X179879D01*
X183224Y127886D02*
X182667Y128444D01*
X181552D01*
X180994Y127886D01*
Y125656D01*
X181552Y125098D01*
X182667D01*
X183224Y125656D01*
X186569Y128444D02*
X185454D01*
X186012D01*
Y125656D01*
X185454Y125098D01*
X184897D01*
X184339Y125656D01*
X187685Y128444D02*
Y125098D01*
X189915D01*
X193260Y127886D02*
X192703Y128444D01*
X191588D01*
X191030Y127886D01*
Y125656D01*
X191588Y125098D01*
X192703D01*
X193260Y125656D01*
X196606Y128444D02*
X195491D01*
X196048D01*
Y125656D01*
X195491Y125098D01*
X194933D01*
X194375Y125656D01*
X197721Y128444D02*
Y125098D01*
X199951D01*
X203296Y127886D02*
X202739Y128444D01*
X201624D01*
X201066Y127886D01*
Y125656D01*
X201624Y125098D01*
X202739D01*
X203296Y125656D01*
X206642Y128444D02*
X205527D01*
X206084D01*
Y125656D01*
X205527Y125098D01*
X204969D01*
X204412Y125656D01*
X207757Y128444D02*
Y125098D01*
X209987D01*
X213333Y127886D02*
X212775Y128444D01*
X211660D01*
X211102Y127886D01*
Y125656D01*
X211660Y125098D01*
X212775D01*
X213333Y125656D01*
D24*
X392413Y212593D02*
Y207594D01*
X393413Y206594D01*
X395412D01*
X396412Y207594D01*
Y212593D01*
X398411Y206594D02*
X400411D01*
X399411D01*
Y212593D01*
X398411Y211593D01*
X407768Y227854D02*
Y233852D01*
X410767D01*
X411766Y232853D01*
Y230853D01*
X410767Y229854D01*
X407768D01*
X417765Y227854D02*
X413766D01*
X417765Y231853D01*
Y232853D01*
X416765Y233852D01*
X414765D01*
X413766Y232853D01*
X410130Y193209D02*
Y199207D01*
X413129D01*
X414129Y198207D01*
Y196208D01*
X413129Y195208D01*
X410130D01*
X416128Y193209D02*
X418127D01*
X417128D01*
Y199207D01*
X416128Y198207D01*
X354377Y160817D02*
Y154818D01*
Y156818D01*
X358376Y160817D01*
X355377Y157817D01*
X358376Y154818D01*
X364374Y160817D02*
X360375D01*
Y157817D01*
X362374Y158817D01*
X363374D01*
X364374Y157817D01*
Y155818D01*
X363374Y154818D01*
X361374D01*
X360375Y155818D01*
X292420Y160817D02*
Y154818D01*
Y156818D01*
X296419Y160817D01*
X293420Y157817D01*
X296419Y154818D01*
X301417D02*
Y160817D01*
X298418Y157817D01*
X302417D01*
X230463Y160817D02*
Y154818D01*
Y156818D01*
X234462Y160817D01*
X231463Y157817D01*
X234462Y154818D01*
X236461Y159817D02*
X237461Y160817D01*
X239460D01*
X240460Y159817D01*
Y158817D01*
X239460Y157817D01*
X238461D01*
X239460D01*
X240460Y156818D01*
Y155818D01*
X239460Y154818D01*
X237461D01*
X236461Y155818D01*
X168007Y160817D02*
Y154818D01*
Y156818D01*
X172005Y160817D01*
X169006Y157817D01*
X172005Y154818D01*
X178004D02*
X174005D01*
X178004Y158817D01*
Y159817D01*
X177004Y160817D01*
X175004D01*
X174005Y159817D01*
X105550Y160817D02*
Y154818D01*
Y156818D01*
X109549Y160817D01*
X106550Y157817D01*
X109549Y154818D01*
X111548D02*
X113547D01*
X112548D01*
Y160817D01*
X111548Y159817D01*
X342807Y173917D02*
X344513D01*
X343660D01*
Y179034D01*
X342807Y178181D01*
X356454Y173917D02*
X353043D01*
X356454Y177328D01*
Y178181D01*
X355602Y179034D01*
X353896D01*
X353043Y178181D01*
X362886Y178181D02*
X363739Y179034D01*
X365444D01*
X366297Y178181D01*
Y177328D01*
X365444Y176476D01*
X364591D01*
X365444D01*
X366297Y175623D01*
Y174770D01*
X365444Y173917D01*
X363739D01*
X362886Y174770D01*
X374499Y173917D02*
Y179034D01*
X371941Y176476D01*
X375352D01*
X386769Y179034D02*
X383358D01*
Y176476D01*
X385064Y177328D01*
X385916D01*
X386769Y176476D01*
Y174770D01*
X385916Y173917D01*
X384211D01*
X383358Y174770D01*
X395431Y179034D02*
X393725Y178181D01*
X392020Y176476D01*
Y174770D01*
X392872Y173917D01*
X394578D01*
X395431Y174770D01*
Y175623D01*
X394578Y176476D01*
X392020D01*
X403043Y179034D02*
X406454D01*
Y178181D01*
X403043Y174770D01*
Y173917D01*
X413279Y178181D02*
X414132Y179034D01*
X415838D01*
X416690Y178181D01*
Y177328D01*
X415838Y176476D01*
X416690Y175623D01*
Y174770D01*
X415838Y173917D01*
X414132D01*
X413279Y174770D01*
Y175623D01*
X414132Y176476D01*
X413279Y177328D01*
Y178181D01*
X414132Y176476D02*
X415838D01*
X87753Y179920D02*
X86048D01*
X86901D01*
Y175656D01*
X86048Y174803D01*
X85195D01*
X84342Y175656D01*
X89459Y174803D02*
Y178214D01*
X91164Y179920D01*
X92870Y178214D01*
Y174803D01*
Y177361D01*
X89459D01*
X84342Y182972D02*
X86048D01*
X85195D01*
Y188089D01*
X84342Y187236D01*
X88606D02*
X89459Y188089D01*
X91164D01*
X92017Y187236D01*
Y183825D01*
X91164Y182972D01*
X89459D01*
X88606Y183825D01*
Y187236D01*
X93723Y182972D02*
X97134Y186383D01*
X102250Y182972D02*
X98839D01*
X102250Y186383D01*
Y187236D01*
X101397Y188089D01*
X99692D01*
X98839Y187236D01*
X103956D02*
X104808Y188089D01*
X106514D01*
X107367Y187236D01*
Y183825D01*
X106514Y182972D01*
X104808D01*
X103956Y183825D01*
Y187236D01*
X112483Y182972D02*
X109072D01*
X112483Y186383D01*
Y187236D01*
X111630Y188089D01*
X109925D01*
X109072Y187236D01*
X117599Y182972D02*
X114189D01*
X117599Y186383D01*
Y187236D01*
X116747Y188089D01*
X115041D01*
X114189Y187236D01*
D25*
X357636Y222212D02*
X358160Y222737D01*
Y223786D01*
X357636Y224311D01*
X355537D01*
X355012Y223786D01*
Y222737D01*
X355537Y222212D01*
X356586D01*
Y223261D01*
X355012Y221162D02*
X358160D01*
X355012Y219063D01*
X358160D01*
Y218014D02*
X355012D01*
Y216440D01*
X355537Y215915D01*
X357636D01*
X358160Y216440D01*
Y218014D01*
X359343Y224311D02*
X362491D01*
Y222737D01*
X361966Y222212D01*
X360917D01*
X360392Y222737D01*
Y224311D01*
Y223261D02*
X359343Y222212D01*
X362491Y221162D02*
X359343Y219063D01*
X362491D02*
X359343Y221162D01*
X394381Y224311D02*
Y222212D01*
Y223261D01*
X391232D01*
X394381Y221162D02*
X391232Y219063D01*
X394381D02*
X391232Y221162D01*
X366822Y224311D02*
X363673D01*
Y222737D01*
X364198Y222212D01*
X366297D01*
X366822Y222737D01*
Y224311D01*
Y221162D02*
Y220113D01*
Y220638D01*
X363673D01*
Y221162D01*
Y220113D01*
Y218539D02*
X366822D01*
Y216964D01*
X366297Y216440D01*
X365248D01*
X364723Y216964D01*
Y218539D01*
Y217489D02*
X363673Y216440D01*
X399105Y224311D02*
X397006D01*
X395957Y223261D01*
X397006Y222212D01*
X399105D01*
X398581Y219063D02*
X399105Y219588D01*
Y220638D01*
X398581Y221162D01*
X396481D01*
X395957Y220638D01*
Y219588D01*
X396481Y219063D01*
X398581Y215915D02*
X399105Y216440D01*
Y217489D01*
X398581Y218014D01*
X396481D01*
X395957Y217489D01*
Y216440D01*
X396481Y215915D01*
D26*
X84450Y194553D02*
Y191142D01*
Y192847D01*
X85303Y193700D01*
X86156Y194553D01*
X87009D01*
X89567Y189436D02*
X90420D01*
X91272Y190289D01*
Y194553D01*
X97241Y191142D02*
Y196258D01*
X94683Y193700D01*
X98094D01*
X103211Y196258D02*
X99800D01*
Y193700D01*
X101505Y194553D01*
X102358D01*
X103211Y193700D01*
Y191995D01*
X102358Y191142D01*
X100653D01*
X99800Y191995D01*
X104916Y190289D02*
X108327D01*
X110033Y196258D02*
Y191142D01*
Y193700D01*
X110885Y194553D01*
X112591D01*
X113444Y193700D01*
Y191142D01*
X115149Y194553D02*
Y191995D01*
X116002Y191142D01*
X118560D01*
Y194553D01*
X120266Y196258D02*
Y191142D01*
X122824D01*
X123677Y191995D01*
Y192847D01*
Y193700D01*
X122824Y194553D01*
X120266D01*
M02*
