G04*
G04 #@! TF.GenerationSoftware,Altium Limited,CircuitStudio,1.5.2 (1.5.2.30)*
G04*
G04 Layer_Physical_Order=2*
G04 Layer_Color=16711680*
%FSLAX25Y25*%
%MOIN*%
G70*
G01*
G75*
%ADD11C,0.03937*%
%ADD12C,0.01969*%
%ADD13C,0.23622*%
%ADD14R,0.05906X0.05906*%
%ADD15C,0.05906*%
%ADD16C,0.06000*%
%ADD17C,0.02756*%
%ADD18R,0.11811X0.03150*%
%ADD19R,0.03000X0.03000*%
%ADD20C,0.02953*%
D11*
X257413Y146468D02*
Y168839D01*
X257374Y168799D02*
X257413Y168839D01*
X132500Y168728D02*
X132571Y168799D01*
X319185D02*
X319370Y146468D01*
X194957D02*
X195169Y168799D01*
X381390Y146531D02*
Y168799D01*
X137650Y102302D02*
X386076D01*
X147500Y130610D02*
X396319D01*
X155405Y125492D02*
X219185D01*
X117500Y120768D02*
X364328D01*
X364461Y120635D01*
X386076Y102302D02*
X386114Y102264D01*
X344382Y125492D02*
X400681D01*
X282571D02*
X344382D01*
X219185D02*
X282571D01*
X401327Y146468D02*
X405012Y142783D01*
X400681Y125492D02*
X405012Y129823D01*
X147500Y130610D02*
Y136469D01*
X396319Y130610D02*
Y136461D01*
X209957Y136469D02*
X210130Y131398D01*
X272413D02*
Y136469D01*
X334146Y131004D02*
X334370Y136469D01*
X132500Y146468D02*
Y168728D01*
X413594Y141161D02*
Y185728D01*
X410524Y138091D02*
X413594Y141161D01*
X405012Y138091D02*
X410524D01*
X405012Y129823D02*
Y138091D01*
Y142783D01*
X343595Y181004D02*
Y185728D01*
Y181004D02*
X355799Y168799D01*
Y146996D02*
Y168799D01*
Y146996D02*
X366327Y136469D01*
D12*
X142500Y146468D02*
Y153138D01*
X143819Y154457D01*
Y158276D01*
X189957Y136469D02*
Y158201D01*
X206276Y154457D02*
Y158276D01*
X204957Y153138D02*
X206276Y154457D01*
X204957Y146468D02*
Y153138D01*
X268732Y154457D02*
Y158276D01*
X267413Y153138D02*
X268732Y154457D01*
X267413Y146468D02*
Y153138D01*
X330689Y154457D02*
Y158276D01*
X329370Y153138D02*
X330689Y154457D01*
X329370Y146468D02*
Y153138D01*
X252413Y136469D02*
Y158201D01*
X314370Y136469D02*
Y158201D01*
X376327Y136469D02*
Y158201D01*
X127500Y136469D02*
Y158276D01*
X391327Y146468D02*
Y149996D01*
X395169Y153839D01*
Y158169D01*
X386327Y143390D02*
Y148930D01*
X396350Y143602D02*
Y148954D01*
D13*
X432571Y112500D02*
D03*
X86114Y224705D02*
D03*
Y112500D02*
D03*
X299362Y224705D02*
D03*
X432571D02*
D03*
D14*
X343595Y185728D02*
D03*
X359343Y230610D02*
D03*
D15*
X353594Y185728D02*
D03*
X363595D02*
D03*
X373594D02*
D03*
X383594D02*
D03*
X393595D02*
D03*
X403594D02*
D03*
X413594D02*
D03*
X399342Y230610D02*
D03*
X389342D02*
D03*
X379343D02*
D03*
X369342D02*
D03*
D16*
X309370Y146468D02*
D03*
X314370Y136469D02*
D03*
X319370Y146468D02*
D03*
X324370Y136469D02*
D03*
X329370Y146468D02*
D03*
X334370Y136469D02*
D03*
X304370D02*
D03*
X339370Y146468D02*
D03*
X247413D02*
D03*
X252413Y136469D02*
D03*
X257413Y146468D02*
D03*
X262413Y136469D02*
D03*
X267413Y146468D02*
D03*
X272413Y136469D02*
D03*
X242413D02*
D03*
X277413Y146468D02*
D03*
X184957D02*
D03*
X189957Y136469D02*
D03*
X194957Y146468D02*
D03*
X199957Y136469D02*
D03*
X204957Y146468D02*
D03*
X209957Y136469D02*
D03*
X179957D02*
D03*
X214957Y146468D02*
D03*
X122500D02*
D03*
X127500Y136469D02*
D03*
X132500Y146468D02*
D03*
X137500Y136469D02*
D03*
X142500Y146468D02*
D03*
X147500Y136469D02*
D03*
X117500D02*
D03*
X152500Y146468D02*
D03*
X371327D02*
D03*
X376327Y136469D02*
D03*
X381327Y146468D02*
D03*
X386327Y136469D02*
D03*
X391327Y146468D02*
D03*
X396327Y136469D02*
D03*
X366327D02*
D03*
X401327Y146468D02*
D03*
D17*
X257374Y168799D02*
D03*
X319185D02*
D03*
X195169D02*
D03*
X381390D02*
D03*
X132571D02*
D03*
X324370Y102331D02*
D03*
X262413Y102342D02*
D03*
X199894Y102264D02*
D03*
X179957Y120768D02*
D03*
X137650Y102302D02*
D03*
X304370Y120768D02*
D03*
X242413D02*
D03*
X364461Y120635D02*
D03*
X117500Y120768D02*
D03*
X386114Y102264D02*
D03*
X344382Y125492D02*
D03*
X282571D02*
D03*
X219185D02*
D03*
X155405D02*
D03*
X123122Y173524D02*
D03*
X372335D02*
D03*
X185721D02*
D03*
X247925D02*
D03*
X310130D02*
D03*
X143988Y178248D02*
D03*
X397532Y178642D02*
D03*
X206980Y178642D02*
D03*
X268791D02*
D03*
X330602Y178538D02*
D03*
D18*
X397138Y162138D02*
D03*
Y158138D02*
D03*
X371941Y162138D02*
D03*
Y158138D02*
D03*
X330764Y162276D02*
D03*
Y158276D02*
D03*
X310130Y162138D02*
D03*
Y158138D02*
D03*
X268791Y162531D02*
D03*
Y158531D02*
D03*
X247925Y162138D02*
D03*
Y158138D02*
D03*
X206850Y162276D02*
D03*
Y158276D02*
D03*
X185721Y162531D02*
D03*
Y158531D02*
D03*
X143988Y162138D02*
D03*
Y158138D02*
D03*
X123122Y162531D02*
D03*
Y158531D02*
D03*
D19*
X381784Y193602D02*
D03*
X376284D02*
D03*
D20*
X123122Y162531D02*
Y173524D01*
X372335Y162925D02*
Y173524D01*
X185721Y162531D02*
Y173524D01*
X247925Y162138D02*
Y173524D01*
X310130Y162138D02*
Y173524D01*
X143988Y162138D02*
Y178248D01*
X397532Y162862D02*
Y178642D01*
X393595Y178642D02*
Y185728D01*
Y178642D02*
X397532Y178642D01*
X403594Y185728D02*
X407768Y181555D01*
X405799Y152264D02*
X407768Y154232D01*
Y181555D01*
X396350Y148954D02*
Y149902D01*
X398713Y152264D01*
X405799D01*
X383594Y185728D02*
X387295Y182028D01*
Y149899D02*
Y182028D01*
X386327Y148930D02*
X387295Y149899D01*
X396327Y136469D02*
X396350Y136492D01*
Y143602D01*
X386327Y136469D02*
Y143390D01*
X373594Y185728D02*
X381390Y177933D01*
Y168799D02*
Y177933D01*
X363595Y185728D02*
X372335Y176988D01*
Y173524D02*
Y176988D01*
X353594Y185728D02*
X361705Y177618D01*
Y151476D02*
Y177618D01*
Y151476D02*
X366713Y146468D01*
X371327D01*
X206850Y162276D02*
Y178512D01*
X206980Y178642D01*
X268791Y162531D02*
Y178642D01*
X330764Y162276D02*
Y178480D01*
X330602Y178538D02*
Y178642D01*
X330764Y178480D01*
X381784Y193602D02*
X383594Y191791D01*
Y185728D02*
Y191791D01*
X373594Y185728D02*
Y190913D01*
X376284Y193602D01*
M02*
