G04*
G04 #@! TF.GenerationSoftware,Altium Limited,CircuitStudio,1.5.2 (1.5.2.30)*
G04*
G04 Layer_Physical_Order=1*
G04 Layer_Color=255*
%FSLAX25Y25*%
%MOIN*%
G70*
G01*
G75*
%ADD10R,0.02087X0.07795*%
%ADD11C,0.03937*%
%ADD12C,0.01969*%
%ADD13C,0.23622*%
%ADD14R,0.05906X0.05906*%
%ADD15C,0.05906*%
%ADD16C,0.06000*%
%ADD17C,0.02756*%
D10*
X386528Y199646D02*
D03*
X381528D02*
D03*
X376528D02*
D03*
X371528D02*
D03*
Y219055D02*
D03*
X376528D02*
D03*
X381528D02*
D03*
X386528D02*
D03*
D11*
X358307Y151870D02*
Y162894D01*
X296350D02*
X358307D01*
X296350Y151870D02*
Y162894D01*
X113673Y155295D02*
Y162894D01*
X177339Y146468D02*
X184957D01*
X171937Y151870D02*
X177339Y146468D01*
X171937Y151870D02*
Y162500D01*
X239795Y146468D02*
X247413D01*
X234394Y151870D02*
X239795Y146468D01*
X234394Y151870D02*
Y162500D01*
X363709Y146468D02*
X371327D01*
X358307Y151870D02*
X363709Y146468D01*
X296350Y151870D02*
X301752Y146468D01*
X309370D01*
X319185Y168799D02*
X381390D01*
X113673Y155295D02*
X122500Y146468D01*
X324370Y102331D02*
Y136469D01*
X262413Y102342D02*
Y136469D01*
X199894Y102264D02*
X199957Y102327D01*
Y136469D01*
X179957Y120768D02*
Y136469D01*
X137500Y102453D02*
X137650Y102302D01*
X137500Y102453D02*
Y136469D01*
X364461Y120635D02*
X365601Y121776D01*
X365642D01*
X386114Y102264D02*
Y136256D01*
X344382Y125492D02*
Y141457D01*
X339370Y146468D02*
X344382Y141457D01*
X282571Y125492D02*
Y141311D01*
X277413Y146468D02*
X282571Y141311D01*
X219185Y125492D02*
Y142240D01*
X214957Y146468D02*
X219185Y142240D01*
X155405Y125492D02*
Y143563D01*
X152500Y146468D02*
X155405Y143563D01*
X117500Y120768D02*
Y136469D01*
X242413Y120768D02*
Y136469D01*
X304370Y120768D02*
Y136469D01*
X365642Y121776D02*
Y135783D01*
X113673Y162894D02*
X296350D01*
X132571Y168799D02*
X195169D01*
X123122Y173524D02*
X185721D01*
X247925D01*
X310130D02*
X372335D01*
X143988Y178248D02*
X206981Y178346D01*
X195169Y168799D02*
X319185D01*
X247925Y173524D02*
X310130D01*
X206981Y178346D02*
X268792Y178442D01*
X330602Y178538D01*
X397532Y178642D01*
D12*
X381528Y187795D02*
Y199646D01*
Y187795D02*
X383594Y185728D01*
X376528Y188661D02*
Y199646D01*
X373594Y185728D02*
X376528Y188661D01*
X386528Y199646D02*
Y204646D01*
X388476Y206594D01*
X394776D01*
X399342Y211161D01*
Y230610D01*
X371528Y199646D02*
Y204646D01*
X369579Y206594D02*
X371528Y204646D01*
X364067Y206594D02*
X369579D01*
X359343Y211319D02*
X364067Y206594D01*
X359343Y211319D02*
Y230610D01*
X366035Y227303D02*
X369342Y230610D01*
X366035Y214075D02*
Y227303D01*
Y214075D02*
X369579Y210531D01*
X384146D01*
X386528Y212913D01*
Y219055D01*
X376528D02*
X381528D01*
Y228425D01*
X379343Y230610D02*
X381528Y228425D01*
X384224Y235728D02*
X389342Y230610D01*
X376665Y235728D02*
X384224D01*
X374303Y233366D02*
X376665Y235728D01*
X374303Y227461D02*
Y233366D01*
X371528Y224685D02*
X374303Y227461D01*
X371528Y219055D02*
Y224685D01*
D13*
X432571Y112500D02*
D03*
X86114Y224705D02*
D03*
Y112500D02*
D03*
X299362Y224705D02*
D03*
X432571D02*
D03*
D14*
X343595Y185728D02*
D03*
X359343Y230610D02*
D03*
D15*
X353594Y185728D02*
D03*
X363595D02*
D03*
X373594D02*
D03*
X383594D02*
D03*
X393595D02*
D03*
X403594D02*
D03*
X413594D02*
D03*
X399342Y230610D02*
D03*
X389342D02*
D03*
X379343D02*
D03*
X369342D02*
D03*
D16*
X309370Y146468D02*
D03*
X314370Y136469D02*
D03*
X319370Y146468D02*
D03*
X324370Y136469D02*
D03*
X329370Y146468D02*
D03*
X334370Y136469D02*
D03*
X304370D02*
D03*
X339370Y146468D02*
D03*
X247413D02*
D03*
X252413Y136469D02*
D03*
X257413Y146468D02*
D03*
X262413Y136469D02*
D03*
X267413Y146468D02*
D03*
X272413Y136469D02*
D03*
X242413D02*
D03*
X277413Y146468D02*
D03*
X184957D02*
D03*
X189957Y136469D02*
D03*
X194957Y146468D02*
D03*
X199957Y136469D02*
D03*
X204957Y146468D02*
D03*
X209957Y136469D02*
D03*
X179957D02*
D03*
X214957Y146468D02*
D03*
X122500D02*
D03*
X127500Y136469D02*
D03*
X132500Y146468D02*
D03*
X137500Y136469D02*
D03*
X142500Y146468D02*
D03*
X147500Y136469D02*
D03*
X117500D02*
D03*
X152500Y146468D02*
D03*
X371327D02*
D03*
X376327Y136469D02*
D03*
X381327Y146468D02*
D03*
X386327Y136469D02*
D03*
X391327Y146468D02*
D03*
X396327Y136469D02*
D03*
X366327D02*
D03*
X401327Y146468D02*
D03*
D17*
X257374Y168799D02*
D03*
X319185D02*
D03*
X195169D02*
D03*
X381390D02*
D03*
X132571D02*
D03*
X324370Y102331D02*
D03*
X262413Y102342D02*
D03*
X199894Y102264D02*
D03*
X179957Y120768D02*
D03*
X137650Y102302D02*
D03*
X304370Y120768D02*
D03*
X242413D02*
D03*
X364461Y120635D02*
D03*
X117500Y120768D02*
D03*
X386114Y102264D02*
D03*
X344382Y125492D02*
D03*
X282571D02*
D03*
X219185D02*
D03*
X155405D02*
D03*
X123122Y173524D02*
D03*
X372335D02*
D03*
X185721D02*
D03*
X247925D02*
D03*
X310130D02*
D03*
X143988Y178248D02*
D03*
X397532Y178642D02*
D03*
X206980Y178642D02*
D03*
X268791D02*
D03*
X330602Y178538D02*
D03*
M02*
