M48
;Layer_Color=9474304
;FILE_FORMAT=2:5
INCH,LZ
;TYPE=PLATED
T1F00S00C0.01181
T2F00S00C0.03150
T3F00S00C0.03543
T4F00S00C0.12598
;TYPE=NON_PLATED
T5F00S00C0.07874
T6F00S00C0.12795
%
T01
X01175Y0120768
X013765Y0102302
X0155405Y0125492
X0179957Y0120768
X0199894Y0102264
X0219185Y0125492
X0242413Y0120768
X0262413Y0102342
X0282571Y0125492
X030437Y0120768
X032437Y0102331
X0344382Y0125492
X0364461Y0120635
X0386114Y0102264
X038139Y0168799
X0372335Y0173524
X0397532Y0178642
X0330602Y0178538
X0319185Y0168799
X031013Y0173524
X0268791Y0178642
X0257374Y0168799
X0247925Y0173524
X020698Y0178642
X0195169Y0168799
X0185721Y0173524
X0143988Y0178248
X0132571Y0168799
X0123122Y0173524
T02
X01175Y0136469
X01275
X01375
X01475
X01525Y0146468
X01425
X01325
X01225
X0184957
X0194957
X0204957
X0214957
X0209957Y0136469
X0199957
X0189957
X0179957
X0242413
X0252413
X0262413
X0272413
X0277413Y0146468
X0267413
X0257413
X0247413
X030937
X030437Y0136469
X031437
X032437
X033437
X033937Y0146468
X032937
X031937
X0371327
X0381327
X0391327
X0401327
X0396327Y0136469
X0386327
X0376327
X0366327
T03
X0343595Y0185728
X0353594
X0363595
X0373594
X0383594
X0393595
X0403594
X0413594
X0399342Y023061
X0389342
X0379343
X0369342
X0359343
T04
X0086114Y01125
X0432571
Y0224705
X0299362
X0086114
T05
X0280996Y0155413
T06
X0112492Y0111469
X01575
X0174949
X0219957
X0237405
X0282413
X0299362
X034437
X0361319
X0406327
M30
