G04*
G04 #@! TF.GenerationSoftware,Altium Limited,CircuitStudio,1.5.2 (1.5.2.30)*
G04*
G04 Layer_Color=8388736*
%FSLAX25Y25*%
%MOIN*%
G70*
G01*
G75*
%ADD10R,0.02087X0.07795*%
%ADD27C,0.24422*%
%ADD28R,0.06706X0.06706*%
%ADD29C,0.06706*%
%ADD30C,0.06800*%
%ADD31C,0.00800*%
%ADD32C,0.03556*%
D10*
X386528Y199646D02*
D03*
X381528D02*
D03*
X376528D02*
D03*
X371528D02*
D03*
Y219055D02*
D03*
X376528D02*
D03*
X381528D02*
D03*
X386528D02*
D03*
D27*
X432571Y112500D02*
D03*
X86114Y224705D02*
D03*
Y112500D02*
D03*
X299362Y224705D02*
D03*
X432571D02*
D03*
D28*
X343595Y185728D02*
D03*
X359343Y230610D02*
D03*
D29*
X353594Y185728D02*
D03*
X363595D02*
D03*
X373594D02*
D03*
X383594D02*
D03*
X393595D02*
D03*
X403594D02*
D03*
X413594D02*
D03*
X399342Y230610D02*
D03*
X389342D02*
D03*
X379343D02*
D03*
X369342D02*
D03*
D30*
X309370Y146468D02*
D03*
X314370Y136469D02*
D03*
X319370Y146468D02*
D03*
X324370Y136469D02*
D03*
X329370Y146468D02*
D03*
X334370Y136469D02*
D03*
X304370D02*
D03*
X339370Y146468D02*
D03*
X247413D02*
D03*
X252413Y136469D02*
D03*
X257413Y146468D02*
D03*
X262413Y136469D02*
D03*
X267413Y146468D02*
D03*
X272413Y136469D02*
D03*
X242413D02*
D03*
X277413Y146468D02*
D03*
X184957D02*
D03*
X189957Y136469D02*
D03*
X194957Y146468D02*
D03*
X199957Y136469D02*
D03*
X204957Y146468D02*
D03*
X209957Y136469D02*
D03*
X179957D02*
D03*
X214957Y146468D02*
D03*
X122500D02*
D03*
X127500Y136469D02*
D03*
X132500Y146468D02*
D03*
X137500Y136469D02*
D03*
X142500Y146468D02*
D03*
X147500Y136469D02*
D03*
X117500D02*
D03*
X152500Y146468D02*
D03*
X371327D02*
D03*
X376327Y136469D02*
D03*
X381327Y146468D02*
D03*
X386327Y136469D02*
D03*
X391327Y146468D02*
D03*
X396327Y136469D02*
D03*
X366327D02*
D03*
X401327Y146468D02*
D03*
D31*
X299362Y111469D02*
D03*
X344370D02*
D03*
X237405D02*
D03*
X282413D02*
D03*
X174949D02*
D03*
X219957D02*
D03*
X112492D02*
D03*
X157500D02*
D03*
X361319D02*
D03*
X406327D02*
D03*
X280996Y155413D02*
D03*
D32*
X257374Y168799D02*
D03*
X319185D02*
D03*
X195169D02*
D03*
X381390D02*
D03*
X132571D02*
D03*
X324370Y102331D02*
D03*
X262413Y102342D02*
D03*
X199894Y102264D02*
D03*
X179957Y120768D02*
D03*
X137650Y102302D02*
D03*
X304370Y120768D02*
D03*
X242413D02*
D03*
X364461Y120635D02*
D03*
X117500Y120768D02*
D03*
X386114Y102264D02*
D03*
X344382Y125492D02*
D03*
X282571D02*
D03*
X219185D02*
D03*
X155405D02*
D03*
X123122Y173524D02*
D03*
X372335D02*
D03*
X185721D02*
D03*
X247925D02*
D03*
X310130D02*
D03*
X143988Y178248D02*
D03*
X397532Y178642D02*
D03*
X206980Y178642D02*
D03*
X268791D02*
D03*
X330602Y178538D02*
D03*
M02*
