G04*
G04 #@! TF.GenerationSoftware,Altium Limited,CircuitStudio,1.5.2 (30)*
G04*
G04 Layer_Color=65535*
%FSLAX25Y25*%
%MOIN*%
G70*
G01*
G75*
%ADD13C,0.00787*%
%ADD14C,0.00630*%
D13*
X211417Y405630D02*
Y415630D01*
X292402D01*
Y405630D02*
Y415630D01*
X211417Y405630D02*
X292402D01*
X210236Y349606D02*
Y363779D01*
X224410Y349606D02*
Y363779D01*
X281101Y349606D02*
Y363779D01*
X295275Y349606D02*
Y363779D01*
D14*
X235695Y358857D02*
X234580D01*
X235137D01*
Y356069D01*
X234580Y355512D01*
X234022D01*
X233465Y356069D01*
X236810Y358857D02*
Y355512D01*
X239040D01*
X242386Y358300D02*
X241828Y358857D01*
X240713D01*
X240155Y358300D01*
Y356069D01*
X240713Y355512D01*
X241828D01*
X242386Y356069D01*
X245731Y358857D02*
X244616D01*
X245173D01*
Y356069D01*
X244616Y355512D01*
X244058D01*
X243501Y356069D01*
X246846Y358857D02*
Y355512D01*
X249076D01*
X252422Y358300D02*
X251864Y358857D01*
X250749D01*
X250191Y358300D01*
Y356069D01*
X250749Y355512D01*
X251864D01*
X252422Y356069D01*
X255767Y358857D02*
X254652D01*
X255209D01*
Y356069D01*
X254652Y355512D01*
X254094D01*
X253537Y356069D01*
X256882Y358857D02*
Y355512D01*
X259113D01*
X262458Y358300D02*
X261900Y358857D01*
X260785D01*
X260228Y358300D01*
Y356069D01*
X260785Y355512D01*
X261900D01*
X262458Y356069D01*
X265803Y358857D02*
X264688D01*
X265246D01*
Y356069D01*
X264688Y355512D01*
X264130D01*
X263573Y356069D01*
X266918Y358857D02*
Y355512D01*
X269149D01*
X272494Y358300D02*
X271936Y358857D01*
X270821D01*
X270264Y358300D01*
Y356069D01*
X270821Y355512D01*
X271936D01*
X272494Y356069D01*
M02*
