G04*
G04 #@! TF.GenerationSoftware,Altium Limited,CircuitStudio,1.5.2 (30)*
G04*
G04 Layer_Physical_Order=1*
G04 Layer_Color=255*
%FSLAX25Y25*%
%MOIN*%
G70*
G01*
G75*
G04:AMPARAMS|DCode=10|XSize=118.11mil|YSize=118.11mil|CornerRadius=29.53mil|HoleSize=0mil|Usage=FLASHONLY|Rotation=180.000|XOffset=0mil|YOffset=0mil|HoleType=Round|Shape=RoundedRectangle|*
%AMROUNDEDRECTD10*
21,1,0.11811,0.05906,0,0,180.0*
21,1,0.05906,0.11811,0,0,180.0*
1,1,0.05906,-0.02953,0.02953*
1,1,0.05906,0.02953,0.02953*
1,1,0.05906,0.02953,-0.02953*
1,1,0.05906,-0.02953,-0.02953*
%
%ADD10ROUNDEDRECTD10*%
%ADD11R,0.11811X0.07047*%
%ADD12C,0.01000*%
G36*
X299213Y334646D02*
X204724D01*
Y356693D01*
X299213D01*
Y334646D01*
D02*
G37*
G36*
X269685Y385984D02*
X269637D01*
X269830Y384024D01*
X270402Y382139D01*
X271330Y380402D01*
X272580Y378879D01*
X274102Y377629D01*
X275840Y376701D01*
X277725Y376129D01*
X279685Y375936D01*
X299213Y375984D01*
Y358661D01*
X204724D01*
Y375984D01*
X224252D01*
Y375936D01*
X226212Y376129D01*
X228097Y376701D01*
X229835Y377629D01*
X231357Y378879D01*
X232607Y380402D01*
X233536Y382139D01*
X234107Y384024D01*
X234300Y385984D01*
X234252Y389764D01*
X269685D01*
Y385984D01*
D02*
G37*
G36*
X264961Y391732D02*
X236221D01*
Y411417D01*
X264961D01*
Y391732D01*
D02*
G37*
D10*
X287402Y410630D02*
D03*
X216535D02*
D03*
D11*
X217323Y345669D02*
D03*
Y367717D02*
D03*
X231496Y345669D02*
D03*
Y367717D02*
D03*
X245669Y345669D02*
D03*
Y367717D02*
D03*
X259842Y345669D02*
D03*
Y367717D02*
D03*
X274016Y345669D02*
D03*
Y367717D02*
D03*
X288188Y345669D02*
D03*
Y367716D02*
D03*
D12*
X231102Y407874D02*
X238189D01*
X229134Y409842D02*
X231102Y407874D01*
X216535Y409842D02*
X229134D01*
X285827Y409449D02*
X287402Y407874D01*
X278740Y409449D02*
X285827D01*
X267323Y398031D02*
X278740Y409449D01*
X267323Y388189D02*
Y398031D01*
M02*
