G04*
G04 #@! TF.GenerationSoftware,Altium Limited,CircuitStudio,1.5.2 (30)*
G04*
G04 Layer_Color=8388736*
%FSLAX25Y25*%
%MOIN*%
G70*
G01*
G75*
G04:AMPARAMS|DCode=15|XSize=126.11mil|YSize=126.11mil|CornerRadius=33.53mil|HoleSize=0mil|Usage=FLASHONLY|Rotation=180.000|XOffset=0mil|YOffset=0mil|HoleType=Round|Shape=RoundedRectangle|*
%AMROUNDEDRECTD15*
21,1,0.12611,0.05906,0,0,180.0*
21,1,0.05906,0.12611,0,0,180.0*
1,1,0.06706,-0.02953,0.02953*
1,1,0.06706,0.02953,0.02953*
1,1,0.06706,0.02953,-0.02953*
1,1,0.06706,-0.02953,-0.02953*
%
%ADD15ROUNDEDRECTD15*%
%ADD16R,0.12611X0.07847*%
%ADD17C,0.00800*%
G36*
X294488Y335827D02*
X253543D01*
Y349606D01*
X294488D01*
Y335827D01*
D02*
G37*
G36*
X268110Y372835D02*
X235827D01*
Y388189D01*
X268110D01*
Y372835D01*
D02*
G37*
G36*
X264173Y392520D02*
X237008D01*
Y406693D01*
X264173D01*
Y392520D01*
D02*
G37*
D15*
X287402Y410630D02*
D03*
X216535D02*
D03*
D16*
X217323Y345669D02*
D03*
Y367717D02*
D03*
X231496Y345669D02*
D03*
Y367717D02*
D03*
X245669Y345669D02*
D03*
Y367717D02*
D03*
X259842Y345669D02*
D03*
Y367717D02*
D03*
X274016Y345669D02*
D03*
Y367717D02*
D03*
X288188Y345669D02*
D03*
Y367716D02*
D03*
D17*
X285039Y389764D02*
D03*
X218898D02*
D03*
M02*
